M48
; DRILL file {KiCad (5.1.0-0)} date Wednesday, May 22, 2019 at 09:23:25 PM
; FORMAT={-:-/ absolute / inch / decimal}
; #@! TF.CreationDate,2019-05-22T21:23:25-07:00
; #@! TF.GenerationSoftware,Kicad,Pcbnew,(5.1.0-0)
; #@! TF.FileFunction,Plated,1,2,PTH
FMAT,2
INCH
T1C0.0394
%
G90
G05
T1
X3.3Y-3.85
X3.3Y-3.95
X3.4Y-3.85
X3.4Y-3.95
X3.5Y-3.85
X3.5Y-3.95
X3.6Y-3.85
X3.6Y-3.95
X4.475Y-3.85
X4.475Y-3.95
X4.575Y-3.85
X4.575Y-3.95
X4.675Y-3.85
X4.675Y-3.95
X4.775Y-3.85
X4.775Y-3.95
X4.875Y-3.85
X4.875Y-3.95
X4.975Y-3.85
X4.975Y-3.95
X5.075Y-3.85
X5.075Y-3.95
X5.175Y-3.85
X5.175Y-3.95
X3.7Y-3.85
X3.7Y-3.95
X3.8Y-3.85
X3.8Y-3.95
X3.9Y-3.85
X3.9Y-3.95
X4.0Y-3.85
X4.0Y-3.95
X5.85Y-3.175
X5.85Y-3.275
X5.85Y-3.375
X5.85Y-3.475
X5.85Y-3.575
X5.85Y-3.675
X5.85Y-3.775
X5.85Y-3.875
X5.95Y-3.175
X5.95Y-3.275
X5.95Y-3.375
X5.95Y-3.475
X5.95Y-3.575
X5.95Y-3.675
X5.95Y-3.775
X5.95Y-3.875
X4.475Y-3.1
X4.475Y-3.2
X4.575Y-3.1
X4.575Y-3.2
X4.675Y-3.1
X4.675Y-3.2
X4.775Y-3.1
X4.775Y-3.2
X4.875Y-3.1
X4.875Y-3.2
X4.975Y-3.1
X4.975Y-3.2
X5.075Y-3.1
X5.075Y-3.2
X5.175Y-3.1
X5.175Y-3.2
X6.5Y-3.175
X6.5Y-3.275
X6.5Y-3.375
X6.5Y-3.475
X6.5Y-3.575
X6.5Y-3.675
X6.5Y-3.775
X6.5Y-3.875
X6.6Y-3.175
X6.6Y-3.275
X6.6Y-3.375
X6.6Y-3.475
X6.6Y-3.575
X6.6Y-3.675
X6.6Y-3.775
X6.6Y-3.875
X3.3Y-3.1
X3.3Y-3.2
X3.4Y-3.1
X3.4Y-3.2
X3.5Y-3.1
X3.5Y-3.2
X3.6Y-3.1
X3.6Y-3.2
X3.7Y-3.1
X3.7Y-3.2
X3.8Y-3.1
X3.8Y-3.2
X3.9Y-3.1
X3.9Y-3.2
X4.0Y-3.1
X4.0Y-3.2
T0
M30
