G04 #@! TF.GenerationSoftware,KiCad,Pcbnew,(5.1.0-0)*
G04 #@! TF.CreationDate,2019-05-22T21:16:58-07:00*
G04 #@! TF.ProjectId,eurorack-bus,6575726f-7261-4636-9b2d-6275732e6b69,rev?*
G04 #@! TF.SameCoordinates,Original*
G04 #@! TF.FileFunction,Soldermask,Top*
G04 #@! TF.FilePolarity,Negative*
%FSLAX46Y46*%
G04 Gerber Fmt 4.6, Leading zero omitted, Abs format (unit mm)*
G04 Created by KiCad (PCBNEW (5.1.0-0)) date 2019-05-22 21:16:58*
%MOMM*%
%LPD*%
G04 APERTURE LIST*
%ADD10C,0.100000*%
G04 APERTURE END LIST*
D10*
G36*
X131555443Y-99435519D02*
G01*
X131621627Y-99442037D01*
X131791466Y-99493557D01*
X131947991Y-99577222D01*
X131983729Y-99606552D01*
X132085186Y-99689814D01*
X132168448Y-99791271D01*
X132197778Y-99827009D01*
X132281443Y-99983534D01*
X132332963Y-100153373D01*
X132350359Y-100330000D01*
X132332963Y-100506627D01*
X132281443Y-100676466D01*
X132197778Y-100832991D01*
X132168448Y-100868729D01*
X132085186Y-100970186D01*
X131983729Y-101053448D01*
X131947991Y-101082778D01*
X131791466Y-101166443D01*
X131621627Y-101217963D01*
X131555443Y-101224481D01*
X131489260Y-101231000D01*
X131400740Y-101231000D01*
X131334558Y-101224482D01*
X131268373Y-101217963D01*
X131098534Y-101166443D01*
X130942009Y-101082778D01*
X130906271Y-101053448D01*
X130804814Y-100970186D01*
X130721552Y-100868729D01*
X130692222Y-100832991D01*
X130608557Y-100676466D01*
X130557037Y-100506627D01*
X130539641Y-100330000D01*
X130557037Y-100153373D01*
X130608557Y-99983534D01*
X130692222Y-99827009D01*
X130721552Y-99791271D01*
X130804814Y-99689814D01*
X130906271Y-99606552D01*
X130942009Y-99577222D01*
X131098534Y-99493557D01*
X131268373Y-99442037D01*
X131334558Y-99435518D01*
X131400740Y-99429000D01*
X131489260Y-99429000D01*
X131555443Y-99435519D01*
X131555443Y-99435519D01*
G37*
G36*
X129015443Y-99435519D02*
G01*
X129081627Y-99442037D01*
X129251466Y-99493557D01*
X129407991Y-99577222D01*
X129443729Y-99606552D01*
X129545186Y-99689814D01*
X129628448Y-99791271D01*
X129657778Y-99827009D01*
X129741443Y-99983534D01*
X129792963Y-100153373D01*
X129810359Y-100330000D01*
X129792963Y-100506627D01*
X129741443Y-100676466D01*
X129657778Y-100832991D01*
X129628448Y-100868729D01*
X129545186Y-100970186D01*
X129443729Y-101053448D01*
X129407991Y-101082778D01*
X129251466Y-101166443D01*
X129081627Y-101217963D01*
X129015443Y-101224481D01*
X128949260Y-101231000D01*
X128860740Y-101231000D01*
X128794558Y-101224482D01*
X128728373Y-101217963D01*
X128558534Y-101166443D01*
X128402009Y-101082778D01*
X128366271Y-101053448D01*
X128264814Y-100970186D01*
X128181552Y-100868729D01*
X128152222Y-100832991D01*
X128068557Y-100676466D01*
X128017037Y-100506627D01*
X127999641Y-100330000D01*
X128017037Y-100153373D01*
X128068557Y-99983534D01*
X128152222Y-99827009D01*
X128181552Y-99791271D01*
X128264814Y-99689814D01*
X128366271Y-99606552D01*
X128402009Y-99577222D01*
X128558534Y-99493557D01*
X128728373Y-99442037D01*
X128794558Y-99435518D01*
X128860740Y-99429000D01*
X128949260Y-99429000D01*
X129015443Y-99435519D01*
X129015443Y-99435519D01*
G37*
G36*
X126475443Y-99435519D02*
G01*
X126541627Y-99442037D01*
X126711466Y-99493557D01*
X126867991Y-99577222D01*
X126903729Y-99606552D01*
X127005186Y-99689814D01*
X127088448Y-99791271D01*
X127117778Y-99827009D01*
X127201443Y-99983534D01*
X127252963Y-100153373D01*
X127270359Y-100330000D01*
X127252963Y-100506627D01*
X127201443Y-100676466D01*
X127117778Y-100832991D01*
X127088448Y-100868729D01*
X127005186Y-100970186D01*
X126903729Y-101053448D01*
X126867991Y-101082778D01*
X126711466Y-101166443D01*
X126541627Y-101217963D01*
X126475443Y-101224481D01*
X126409260Y-101231000D01*
X126320740Y-101231000D01*
X126254558Y-101224482D01*
X126188373Y-101217963D01*
X126018534Y-101166443D01*
X125862009Y-101082778D01*
X125826271Y-101053448D01*
X125724814Y-100970186D01*
X125641552Y-100868729D01*
X125612222Y-100832991D01*
X125528557Y-100676466D01*
X125477037Y-100506627D01*
X125459641Y-100330000D01*
X125477037Y-100153373D01*
X125528557Y-99983534D01*
X125612222Y-99827009D01*
X125641552Y-99791271D01*
X125724814Y-99689814D01*
X125826271Y-99606552D01*
X125862009Y-99577222D01*
X126018534Y-99493557D01*
X126188373Y-99442037D01*
X126254558Y-99435518D01*
X126320740Y-99429000D01*
X126409260Y-99429000D01*
X126475443Y-99435519D01*
X126475443Y-99435519D01*
G37*
G36*
X123935443Y-99435519D02*
G01*
X124001627Y-99442037D01*
X124171466Y-99493557D01*
X124327991Y-99577222D01*
X124363729Y-99606552D01*
X124465186Y-99689814D01*
X124548448Y-99791271D01*
X124577778Y-99827009D01*
X124661443Y-99983534D01*
X124712963Y-100153373D01*
X124730359Y-100330000D01*
X124712963Y-100506627D01*
X124661443Y-100676466D01*
X124577778Y-100832991D01*
X124548448Y-100868729D01*
X124465186Y-100970186D01*
X124363729Y-101053448D01*
X124327991Y-101082778D01*
X124171466Y-101166443D01*
X124001627Y-101217963D01*
X123935443Y-101224481D01*
X123869260Y-101231000D01*
X123780740Y-101231000D01*
X123714558Y-101224482D01*
X123648373Y-101217963D01*
X123478534Y-101166443D01*
X123322009Y-101082778D01*
X123286271Y-101053448D01*
X123184814Y-100970186D01*
X123101552Y-100868729D01*
X123072222Y-100832991D01*
X122988557Y-100676466D01*
X122937037Y-100506627D01*
X122919641Y-100330000D01*
X122937037Y-100153373D01*
X122988557Y-99983534D01*
X123072222Y-99827009D01*
X123101552Y-99791271D01*
X123184814Y-99689814D01*
X123286271Y-99606552D01*
X123322009Y-99577222D01*
X123478534Y-99493557D01*
X123648373Y-99442037D01*
X123714558Y-99435518D01*
X123780740Y-99429000D01*
X123869260Y-99429000D01*
X123935443Y-99435519D01*
X123935443Y-99435519D01*
G37*
G36*
X121395443Y-99435519D02*
G01*
X121461627Y-99442037D01*
X121631466Y-99493557D01*
X121787991Y-99577222D01*
X121823729Y-99606552D01*
X121925186Y-99689814D01*
X122008448Y-99791271D01*
X122037778Y-99827009D01*
X122121443Y-99983534D01*
X122172963Y-100153373D01*
X122190359Y-100330000D01*
X122172963Y-100506627D01*
X122121443Y-100676466D01*
X122037778Y-100832991D01*
X122008448Y-100868729D01*
X121925186Y-100970186D01*
X121823729Y-101053448D01*
X121787991Y-101082778D01*
X121631466Y-101166443D01*
X121461627Y-101217963D01*
X121395443Y-101224481D01*
X121329260Y-101231000D01*
X121240740Y-101231000D01*
X121174558Y-101224482D01*
X121108373Y-101217963D01*
X120938534Y-101166443D01*
X120782009Y-101082778D01*
X120746271Y-101053448D01*
X120644814Y-100970186D01*
X120561552Y-100868729D01*
X120532222Y-100832991D01*
X120448557Y-100676466D01*
X120397037Y-100506627D01*
X120379641Y-100330000D01*
X120397037Y-100153373D01*
X120448557Y-99983534D01*
X120532222Y-99827009D01*
X120561552Y-99791271D01*
X120644814Y-99689814D01*
X120746271Y-99606552D01*
X120782009Y-99577222D01*
X120938534Y-99493557D01*
X121108373Y-99442037D01*
X121174558Y-99435518D01*
X121240740Y-99429000D01*
X121329260Y-99429000D01*
X121395443Y-99435519D01*
X121395443Y-99435519D01*
G37*
G36*
X118855443Y-99435519D02*
G01*
X118921627Y-99442037D01*
X119091466Y-99493557D01*
X119247991Y-99577222D01*
X119283729Y-99606552D01*
X119385186Y-99689814D01*
X119468448Y-99791271D01*
X119497778Y-99827009D01*
X119581443Y-99983534D01*
X119632963Y-100153373D01*
X119650359Y-100330000D01*
X119632963Y-100506627D01*
X119581443Y-100676466D01*
X119497778Y-100832991D01*
X119468448Y-100868729D01*
X119385186Y-100970186D01*
X119283729Y-101053448D01*
X119247991Y-101082778D01*
X119091466Y-101166443D01*
X118921627Y-101217963D01*
X118855443Y-101224481D01*
X118789260Y-101231000D01*
X118700740Y-101231000D01*
X118634558Y-101224482D01*
X118568373Y-101217963D01*
X118398534Y-101166443D01*
X118242009Y-101082778D01*
X118206271Y-101053448D01*
X118104814Y-100970186D01*
X118021552Y-100868729D01*
X117992222Y-100832991D01*
X117908557Y-100676466D01*
X117857037Y-100506627D01*
X117839641Y-100330000D01*
X117857037Y-100153373D01*
X117908557Y-99983534D01*
X117992222Y-99827009D01*
X118021552Y-99791271D01*
X118104814Y-99689814D01*
X118206271Y-99606552D01*
X118242009Y-99577222D01*
X118398534Y-99493557D01*
X118568373Y-99442037D01*
X118634558Y-99435518D01*
X118700740Y-99429000D01*
X118789260Y-99429000D01*
X118855443Y-99435519D01*
X118855443Y-99435519D01*
G37*
G36*
X116315443Y-99435519D02*
G01*
X116381627Y-99442037D01*
X116551466Y-99493557D01*
X116707991Y-99577222D01*
X116743729Y-99606552D01*
X116845186Y-99689814D01*
X116928448Y-99791271D01*
X116957778Y-99827009D01*
X117041443Y-99983534D01*
X117092963Y-100153373D01*
X117110359Y-100330000D01*
X117092963Y-100506627D01*
X117041443Y-100676466D01*
X116957778Y-100832991D01*
X116928448Y-100868729D01*
X116845186Y-100970186D01*
X116743729Y-101053448D01*
X116707991Y-101082778D01*
X116551466Y-101166443D01*
X116381627Y-101217963D01*
X116315443Y-101224481D01*
X116249260Y-101231000D01*
X116160740Y-101231000D01*
X116094558Y-101224482D01*
X116028373Y-101217963D01*
X115858534Y-101166443D01*
X115702009Y-101082778D01*
X115666271Y-101053448D01*
X115564814Y-100970186D01*
X115481552Y-100868729D01*
X115452222Y-100832991D01*
X115368557Y-100676466D01*
X115317037Y-100506627D01*
X115299641Y-100330000D01*
X115317037Y-100153373D01*
X115368557Y-99983534D01*
X115452222Y-99827009D01*
X115481552Y-99791271D01*
X115564814Y-99689814D01*
X115666271Y-99606552D01*
X115702009Y-99577222D01*
X115858534Y-99493557D01*
X116028373Y-99442037D01*
X116094558Y-99435518D01*
X116160740Y-99429000D01*
X116249260Y-99429000D01*
X116315443Y-99435519D01*
X116315443Y-99435519D01*
G37*
G36*
X113775443Y-99435519D02*
G01*
X113841627Y-99442037D01*
X114011466Y-99493557D01*
X114167991Y-99577222D01*
X114203729Y-99606552D01*
X114305186Y-99689814D01*
X114388448Y-99791271D01*
X114417778Y-99827009D01*
X114501443Y-99983534D01*
X114552963Y-100153373D01*
X114570359Y-100330000D01*
X114552963Y-100506627D01*
X114501443Y-100676466D01*
X114417778Y-100832991D01*
X114388448Y-100868729D01*
X114305186Y-100970186D01*
X114203729Y-101053448D01*
X114167991Y-101082778D01*
X114011466Y-101166443D01*
X113841627Y-101217963D01*
X113775443Y-101224481D01*
X113709260Y-101231000D01*
X113620740Y-101231000D01*
X113554558Y-101224482D01*
X113488373Y-101217963D01*
X113318534Y-101166443D01*
X113162009Y-101082778D01*
X113126271Y-101053448D01*
X113024814Y-100970186D01*
X112941552Y-100868729D01*
X112912222Y-100832991D01*
X112828557Y-100676466D01*
X112777037Y-100506627D01*
X112759641Y-100330000D01*
X112777037Y-100153373D01*
X112828557Y-99983534D01*
X112912222Y-99827009D01*
X112941552Y-99791271D01*
X113024814Y-99689814D01*
X113126271Y-99606552D01*
X113162009Y-99577222D01*
X113318534Y-99493557D01*
X113488373Y-99442037D01*
X113554558Y-99435518D01*
X113620740Y-99429000D01*
X113709260Y-99429000D01*
X113775443Y-99435519D01*
X113775443Y-99435519D01*
G37*
G36*
X102501000Y-101231000D02*
G01*
X100699000Y-101231000D01*
X100699000Y-99429000D01*
X102501000Y-99429000D01*
X102501000Y-101231000D01*
X102501000Y-101231000D01*
G37*
G36*
X99170443Y-99435519D02*
G01*
X99236627Y-99442037D01*
X99406466Y-99493557D01*
X99562991Y-99577222D01*
X99598729Y-99606552D01*
X99700186Y-99689814D01*
X99783448Y-99791271D01*
X99812778Y-99827009D01*
X99896443Y-99983534D01*
X99947963Y-100153373D01*
X99965359Y-100330000D01*
X99947963Y-100506627D01*
X99896443Y-100676466D01*
X99812778Y-100832991D01*
X99783448Y-100868729D01*
X99700186Y-100970186D01*
X99598729Y-101053448D01*
X99562991Y-101082778D01*
X99406466Y-101166443D01*
X99236627Y-101217963D01*
X99170443Y-101224481D01*
X99104260Y-101231000D01*
X99015740Y-101231000D01*
X98949558Y-101224482D01*
X98883373Y-101217963D01*
X98713534Y-101166443D01*
X98557009Y-101082778D01*
X98521271Y-101053448D01*
X98419814Y-100970186D01*
X98336552Y-100868729D01*
X98307222Y-100832991D01*
X98223557Y-100676466D01*
X98172037Y-100506627D01*
X98154641Y-100330000D01*
X98172037Y-100153373D01*
X98223557Y-99983534D01*
X98307222Y-99827009D01*
X98336552Y-99791271D01*
X98419814Y-99689814D01*
X98521271Y-99606552D01*
X98557009Y-99577222D01*
X98713534Y-99493557D01*
X98883373Y-99442037D01*
X98949558Y-99435518D01*
X99015740Y-99429000D01*
X99104260Y-99429000D01*
X99170443Y-99435519D01*
X99170443Y-99435519D01*
G37*
G36*
X96630443Y-99435519D02*
G01*
X96696627Y-99442037D01*
X96866466Y-99493557D01*
X97022991Y-99577222D01*
X97058729Y-99606552D01*
X97160186Y-99689814D01*
X97243448Y-99791271D01*
X97272778Y-99827009D01*
X97356443Y-99983534D01*
X97407963Y-100153373D01*
X97425359Y-100330000D01*
X97407963Y-100506627D01*
X97356443Y-100676466D01*
X97272778Y-100832991D01*
X97243448Y-100868729D01*
X97160186Y-100970186D01*
X97058729Y-101053448D01*
X97022991Y-101082778D01*
X96866466Y-101166443D01*
X96696627Y-101217963D01*
X96630443Y-101224481D01*
X96564260Y-101231000D01*
X96475740Y-101231000D01*
X96409558Y-101224482D01*
X96343373Y-101217963D01*
X96173534Y-101166443D01*
X96017009Y-101082778D01*
X95981271Y-101053448D01*
X95879814Y-100970186D01*
X95796552Y-100868729D01*
X95767222Y-100832991D01*
X95683557Y-100676466D01*
X95632037Y-100506627D01*
X95614641Y-100330000D01*
X95632037Y-100153373D01*
X95683557Y-99983534D01*
X95767222Y-99827009D01*
X95796552Y-99791271D01*
X95879814Y-99689814D01*
X95981271Y-99606552D01*
X96017009Y-99577222D01*
X96173534Y-99493557D01*
X96343373Y-99442037D01*
X96409558Y-99435518D01*
X96475740Y-99429000D01*
X96564260Y-99429000D01*
X96630443Y-99435519D01*
X96630443Y-99435519D01*
G37*
G36*
X94090443Y-99435519D02*
G01*
X94156627Y-99442037D01*
X94326466Y-99493557D01*
X94482991Y-99577222D01*
X94518729Y-99606552D01*
X94620186Y-99689814D01*
X94703448Y-99791271D01*
X94732778Y-99827009D01*
X94816443Y-99983534D01*
X94867963Y-100153373D01*
X94885359Y-100330000D01*
X94867963Y-100506627D01*
X94816443Y-100676466D01*
X94732778Y-100832991D01*
X94703448Y-100868729D01*
X94620186Y-100970186D01*
X94518729Y-101053448D01*
X94482991Y-101082778D01*
X94326466Y-101166443D01*
X94156627Y-101217963D01*
X94090443Y-101224481D01*
X94024260Y-101231000D01*
X93935740Y-101231000D01*
X93869558Y-101224482D01*
X93803373Y-101217963D01*
X93633534Y-101166443D01*
X93477009Y-101082778D01*
X93441271Y-101053448D01*
X93339814Y-100970186D01*
X93256552Y-100868729D01*
X93227222Y-100832991D01*
X93143557Y-100676466D01*
X93092037Y-100506627D01*
X93074641Y-100330000D01*
X93092037Y-100153373D01*
X93143557Y-99983534D01*
X93227222Y-99827009D01*
X93256552Y-99791271D01*
X93339814Y-99689814D01*
X93441271Y-99606552D01*
X93477009Y-99577222D01*
X93633534Y-99493557D01*
X93803373Y-99442037D01*
X93869558Y-99435518D01*
X93935740Y-99429000D01*
X94024260Y-99429000D01*
X94090443Y-99435519D01*
X94090443Y-99435519D01*
G37*
G36*
X91550443Y-99435519D02*
G01*
X91616627Y-99442037D01*
X91786466Y-99493557D01*
X91942991Y-99577222D01*
X91978729Y-99606552D01*
X92080186Y-99689814D01*
X92163448Y-99791271D01*
X92192778Y-99827009D01*
X92276443Y-99983534D01*
X92327963Y-100153373D01*
X92345359Y-100330000D01*
X92327963Y-100506627D01*
X92276443Y-100676466D01*
X92192778Y-100832991D01*
X92163448Y-100868729D01*
X92080186Y-100970186D01*
X91978729Y-101053448D01*
X91942991Y-101082778D01*
X91786466Y-101166443D01*
X91616627Y-101217963D01*
X91550443Y-101224481D01*
X91484260Y-101231000D01*
X91395740Y-101231000D01*
X91329558Y-101224482D01*
X91263373Y-101217963D01*
X91093534Y-101166443D01*
X90937009Y-101082778D01*
X90901271Y-101053448D01*
X90799814Y-100970186D01*
X90716552Y-100868729D01*
X90687222Y-100832991D01*
X90603557Y-100676466D01*
X90552037Y-100506627D01*
X90534641Y-100330000D01*
X90552037Y-100153373D01*
X90603557Y-99983534D01*
X90687222Y-99827009D01*
X90716552Y-99791271D01*
X90799814Y-99689814D01*
X90901271Y-99606552D01*
X90937009Y-99577222D01*
X91093534Y-99493557D01*
X91263373Y-99442037D01*
X91329558Y-99435518D01*
X91395740Y-99429000D01*
X91484260Y-99429000D01*
X91550443Y-99435519D01*
X91550443Y-99435519D01*
G37*
G36*
X89010443Y-99435519D02*
G01*
X89076627Y-99442037D01*
X89246466Y-99493557D01*
X89402991Y-99577222D01*
X89438729Y-99606552D01*
X89540186Y-99689814D01*
X89623448Y-99791271D01*
X89652778Y-99827009D01*
X89736443Y-99983534D01*
X89787963Y-100153373D01*
X89805359Y-100330000D01*
X89787963Y-100506627D01*
X89736443Y-100676466D01*
X89652778Y-100832991D01*
X89623448Y-100868729D01*
X89540186Y-100970186D01*
X89438729Y-101053448D01*
X89402991Y-101082778D01*
X89246466Y-101166443D01*
X89076627Y-101217963D01*
X89010443Y-101224481D01*
X88944260Y-101231000D01*
X88855740Y-101231000D01*
X88789558Y-101224482D01*
X88723373Y-101217963D01*
X88553534Y-101166443D01*
X88397009Y-101082778D01*
X88361271Y-101053448D01*
X88259814Y-100970186D01*
X88176552Y-100868729D01*
X88147222Y-100832991D01*
X88063557Y-100676466D01*
X88012037Y-100506627D01*
X87994641Y-100330000D01*
X88012037Y-100153373D01*
X88063557Y-99983534D01*
X88147222Y-99827009D01*
X88176552Y-99791271D01*
X88259814Y-99689814D01*
X88361271Y-99606552D01*
X88397009Y-99577222D01*
X88553534Y-99493557D01*
X88723373Y-99442037D01*
X88789558Y-99435518D01*
X88855740Y-99429000D01*
X88944260Y-99429000D01*
X89010443Y-99435519D01*
X89010443Y-99435519D01*
G37*
G36*
X86470443Y-99435519D02*
G01*
X86536627Y-99442037D01*
X86706466Y-99493557D01*
X86862991Y-99577222D01*
X86898729Y-99606552D01*
X87000186Y-99689814D01*
X87083448Y-99791271D01*
X87112778Y-99827009D01*
X87196443Y-99983534D01*
X87247963Y-100153373D01*
X87265359Y-100330000D01*
X87247963Y-100506627D01*
X87196443Y-100676466D01*
X87112778Y-100832991D01*
X87083448Y-100868729D01*
X87000186Y-100970186D01*
X86898729Y-101053448D01*
X86862991Y-101082778D01*
X86706466Y-101166443D01*
X86536627Y-101217963D01*
X86470443Y-101224481D01*
X86404260Y-101231000D01*
X86315740Y-101231000D01*
X86249558Y-101224482D01*
X86183373Y-101217963D01*
X86013534Y-101166443D01*
X85857009Y-101082778D01*
X85821271Y-101053448D01*
X85719814Y-100970186D01*
X85636552Y-100868729D01*
X85607222Y-100832991D01*
X85523557Y-100676466D01*
X85472037Y-100506627D01*
X85454641Y-100330000D01*
X85472037Y-100153373D01*
X85523557Y-99983534D01*
X85607222Y-99827009D01*
X85636552Y-99791271D01*
X85719814Y-99689814D01*
X85821271Y-99606552D01*
X85857009Y-99577222D01*
X86013534Y-99493557D01*
X86183373Y-99442037D01*
X86249558Y-99435518D01*
X86315740Y-99429000D01*
X86404260Y-99429000D01*
X86470443Y-99435519D01*
X86470443Y-99435519D01*
G37*
G36*
X83930443Y-99435519D02*
G01*
X83996627Y-99442037D01*
X84166466Y-99493557D01*
X84322991Y-99577222D01*
X84358729Y-99606552D01*
X84460186Y-99689814D01*
X84543448Y-99791271D01*
X84572778Y-99827009D01*
X84656443Y-99983534D01*
X84707963Y-100153373D01*
X84725359Y-100330000D01*
X84707963Y-100506627D01*
X84656443Y-100676466D01*
X84572778Y-100832991D01*
X84543448Y-100868729D01*
X84460186Y-100970186D01*
X84358729Y-101053448D01*
X84322991Y-101082778D01*
X84166466Y-101166443D01*
X83996627Y-101217963D01*
X83930443Y-101224481D01*
X83864260Y-101231000D01*
X83775740Y-101231000D01*
X83709558Y-101224482D01*
X83643373Y-101217963D01*
X83473534Y-101166443D01*
X83317009Y-101082778D01*
X83281271Y-101053448D01*
X83179814Y-100970186D01*
X83096552Y-100868729D01*
X83067222Y-100832991D01*
X82983557Y-100676466D01*
X82932037Y-100506627D01*
X82914641Y-100330000D01*
X82932037Y-100153373D01*
X82983557Y-99983534D01*
X83067222Y-99827009D01*
X83096552Y-99791271D01*
X83179814Y-99689814D01*
X83281271Y-99606552D01*
X83317009Y-99577222D01*
X83473534Y-99493557D01*
X83643373Y-99442037D01*
X83709558Y-99435518D01*
X83775740Y-99429000D01*
X83864260Y-99429000D01*
X83930443Y-99435519D01*
X83930443Y-99435519D01*
G37*
G36*
X148700442Y-97530518D02*
G01*
X148766627Y-97537037D01*
X148936466Y-97588557D01*
X149092991Y-97672222D01*
X149128729Y-97701552D01*
X149230186Y-97784814D01*
X149313448Y-97886271D01*
X149342778Y-97922009D01*
X149426443Y-98078534D01*
X149477963Y-98248373D01*
X149495359Y-98425000D01*
X149477963Y-98601627D01*
X149426443Y-98771466D01*
X149342778Y-98927991D01*
X149313448Y-98963729D01*
X149230186Y-99065186D01*
X149128729Y-99148448D01*
X149092991Y-99177778D01*
X148936466Y-99261443D01*
X148766627Y-99312963D01*
X148700442Y-99319482D01*
X148634260Y-99326000D01*
X148545740Y-99326000D01*
X148479557Y-99319481D01*
X148413373Y-99312963D01*
X148243534Y-99261443D01*
X148087009Y-99177778D01*
X148051271Y-99148448D01*
X147949814Y-99065186D01*
X147866552Y-98963729D01*
X147837222Y-98927991D01*
X147753557Y-98771466D01*
X147702037Y-98601627D01*
X147684641Y-98425000D01*
X147702037Y-98248373D01*
X147753557Y-98078534D01*
X147837222Y-97922009D01*
X147866552Y-97886271D01*
X147949814Y-97784814D01*
X148051271Y-97701552D01*
X148087009Y-97672222D01*
X148243534Y-97588557D01*
X148413373Y-97537037D01*
X148479558Y-97530518D01*
X148545740Y-97524000D01*
X148634260Y-97524000D01*
X148700442Y-97530518D01*
X148700442Y-97530518D01*
G37*
G36*
X151240442Y-97530518D02*
G01*
X151306627Y-97537037D01*
X151476466Y-97588557D01*
X151632991Y-97672222D01*
X151668729Y-97701552D01*
X151770186Y-97784814D01*
X151853448Y-97886271D01*
X151882778Y-97922009D01*
X151966443Y-98078534D01*
X152017963Y-98248373D01*
X152035359Y-98425000D01*
X152017963Y-98601627D01*
X151966443Y-98771466D01*
X151882778Y-98927991D01*
X151853448Y-98963729D01*
X151770186Y-99065186D01*
X151668729Y-99148448D01*
X151632991Y-99177778D01*
X151476466Y-99261443D01*
X151306627Y-99312963D01*
X151240442Y-99319482D01*
X151174260Y-99326000D01*
X151085740Y-99326000D01*
X151019557Y-99319481D01*
X150953373Y-99312963D01*
X150783534Y-99261443D01*
X150627009Y-99177778D01*
X150591271Y-99148448D01*
X150489814Y-99065186D01*
X150406552Y-98963729D01*
X150377222Y-98927991D01*
X150293557Y-98771466D01*
X150242037Y-98601627D01*
X150224641Y-98425000D01*
X150242037Y-98248373D01*
X150293557Y-98078534D01*
X150377222Y-97922009D01*
X150406552Y-97886271D01*
X150489814Y-97784814D01*
X150591271Y-97701552D01*
X150627009Y-97672222D01*
X150783534Y-97588557D01*
X150953373Y-97537037D01*
X151019558Y-97530518D01*
X151085740Y-97524000D01*
X151174260Y-97524000D01*
X151240442Y-97530518D01*
X151240442Y-97530518D01*
G37*
G36*
X167750442Y-97530518D02*
G01*
X167816627Y-97537037D01*
X167986466Y-97588557D01*
X168142991Y-97672222D01*
X168178729Y-97701552D01*
X168280186Y-97784814D01*
X168363448Y-97886271D01*
X168392778Y-97922009D01*
X168476443Y-98078534D01*
X168527963Y-98248373D01*
X168545359Y-98425000D01*
X168527963Y-98601627D01*
X168476443Y-98771466D01*
X168392778Y-98927991D01*
X168363448Y-98963729D01*
X168280186Y-99065186D01*
X168178729Y-99148448D01*
X168142991Y-99177778D01*
X167986466Y-99261443D01*
X167816627Y-99312963D01*
X167750442Y-99319482D01*
X167684260Y-99326000D01*
X167595740Y-99326000D01*
X167529557Y-99319481D01*
X167463373Y-99312963D01*
X167293534Y-99261443D01*
X167137009Y-99177778D01*
X167101271Y-99148448D01*
X166999814Y-99065186D01*
X166916552Y-98963729D01*
X166887222Y-98927991D01*
X166803557Y-98771466D01*
X166752037Y-98601627D01*
X166734641Y-98425000D01*
X166752037Y-98248373D01*
X166803557Y-98078534D01*
X166887222Y-97922009D01*
X166916552Y-97886271D01*
X166999814Y-97784814D01*
X167101271Y-97701552D01*
X167137009Y-97672222D01*
X167293534Y-97588557D01*
X167463373Y-97537037D01*
X167529558Y-97530518D01*
X167595740Y-97524000D01*
X167684260Y-97524000D01*
X167750442Y-97530518D01*
X167750442Y-97530518D01*
G37*
G36*
X165210442Y-97530518D02*
G01*
X165276627Y-97537037D01*
X165446466Y-97588557D01*
X165602991Y-97672222D01*
X165638729Y-97701552D01*
X165740186Y-97784814D01*
X165823448Y-97886271D01*
X165852778Y-97922009D01*
X165936443Y-98078534D01*
X165987963Y-98248373D01*
X166005359Y-98425000D01*
X165987963Y-98601627D01*
X165936443Y-98771466D01*
X165852778Y-98927991D01*
X165823448Y-98963729D01*
X165740186Y-99065186D01*
X165638729Y-99148448D01*
X165602991Y-99177778D01*
X165446466Y-99261443D01*
X165276627Y-99312963D01*
X165210442Y-99319482D01*
X165144260Y-99326000D01*
X165055740Y-99326000D01*
X164989557Y-99319481D01*
X164923373Y-99312963D01*
X164753534Y-99261443D01*
X164597009Y-99177778D01*
X164561271Y-99148448D01*
X164459814Y-99065186D01*
X164376552Y-98963729D01*
X164347222Y-98927991D01*
X164263557Y-98771466D01*
X164212037Y-98601627D01*
X164194641Y-98425000D01*
X164212037Y-98248373D01*
X164263557Y-98078534D01*
X164347222Y-97922009D01*
X164376552Y-97886271D01*
X164459814Y-97784814D01*
X164561271Y-97701552D01*
X164597009Y-97672222D01*
X164753534Y-97588557D01*
X164923373Y-97537037D01*
X164989558Y-97530518D01*
X165055740Y-97524000D01*
X165144260Y-97524000D01*
X165210442Y-97530518D01*
X165210442Y-97530518D01*
G37*
G36*
X83930442Y-96895518D02*
G01*
X83996627Y-96902037D01*
X84166466Y-96953557D01*
X84322991Y-97037222D01*
X84358729Y-97066552D01*
X84460186Y-97149814D01*
X84543448Y-97251271D01*
X84572778Y-97287009D01*
X84656443Y-97443534D01*
X84707963Y-97613373D01*
X84725359Y-97790000D01*
X84707963Y-97966627D01*
X84656443Y-98136466D01*
X84572778Y-98292991D01*
X84543448Y-98328729D01*
X84460186Y-98430186D01*
X84358729Y-98513448D01*
X84322991Y-98542778D01*
X84166466Y-98626443D01*
X83996627Y-98677963D01*
X83930442Y-98684482D01*
X83864260Y-98691000D01*
X83775740Y-98691000D01*
X83709558Y-98684482D01*
X83643373Y-98677963D01*
X83473534Y-98626443D01*
X83317009Y-98542778D01*
X83281271Y-98513448D01*
X83179814Y-98430186D01*
X83096552Y-98328729D01*
X83067222Y-98292991D01*
X82983557Y-98136466D01*
X82932037Y-97966627D01*
X82914641Y-97790000D01*
X82932037Y-97613373D01*
X82983557Y-97443534D01*
X83067222Y-97287009D01*
X83096552Y-97251271D01*
X83179814Y-97149814D01*
X83281271Y-97066552D01*
X83317009Y-97037222D01*
X83473534Y-96953557D01*
X83643373Y-96902037D01*
X83709558Y-96895518D01*
X83775740Y-96889000D01*
X83864260Y-96889000D01*
X83930442Y-96895518D01*
X83930442Y-96895518D01*
G37*
G36*
X89010442Y-96895518D02*
G01*
X89076627Y-96902037D01*
X89246466Y-96953557D01*
X89402991Y-97037222D01*
X89438729Y-97066552D01*
X89540186Y-97149814D01*
X89623448Y-97251271D01*
X89652778Y-97287009D01*
X89736443Y-97443534D01*
X89787963Y-97613373D01*
X89805359Y-97790000D01*
X89787963Y-97966627D01*
X89736443Y-98136466D01*
X89652778Y-98292991D01*
X89623448Y-98328729D01*
X89540186Y-98430186D01*
X89438729Y-98513448D01*
X89402991Y-98542778D01*
X89246466Y-98626443D01*
X89076627Y-98677963D01*
X89010442Y-98684482D01*
X88944260Y-98691000D01*
X88855740Y-98691000D01*
X88789558Y-98684482D01*
X88723373Y-98677963D01*
X88553534Y-98626443D01*
X88397009Y-98542778D01*
X88361271Y-98513448D01*
X88259814Y-98430186D01*
X88176552Y-98328729D01*
X88147222Y-98292991D01*
X88063557Y-98136466D01*
X88012037Y-97966627D01*
X87994641Y-97790000D01*
X88012037Y-97613373D01*
X88063557Y-97443534D01*
X88147222Y-97287009D01*
X88176552Y-97251271D01*
X88259814Y-97149814D01*
X88361271Y-97066552D01*
X88397009Y-97037222D01*
X88553534Y-96953557D01*
X88723373Y-96902037D01*
X88789558Y-96895518D01*
X88855740Y-96889000D01*
X88944260Y-96889000D01*
X89010442Y-96895518D01*
X89010442Y-96895518D01*
G37*
G36*
X91550442Y-96895518D02*
G01*
X91616627Y-96902037D01*
X91786466Y-96953557D01*
X91942991Y-97037222D01*
X91978729Y-97066552D01*
X92080186Y-97149814D01*
X92163448Y-97251271D01*
X92192778Y-97287009D01*
X92276443Y-97443534D01*
X92327963Y-97613373D01*
X92345359Y-97790000D01*
X92327963Y-97966627D01*
X92276443Y-98136466D01*
X92192778Y-98292991D01*
X92163448Y-98328729D01*
X92080186Y-98430186D01*
X91978729Y-98513448D01*
X91942991Y-98542778D01*
X91786466Y-98626443D01*
X91616627Y-98677963D01*
X91550442Y-98684482D01*
X91484260Y-98691000D01*
X91395740Y-98691000D01*
X91329558Y-98684482D01*
X91263373Y-98677963D01*
X91093534Y-98626443D01*
X90937009Y-98542778D01*
X90901271Y-98513448D01*
X90799814Y-98430186D01*
X90716552Y-98328729D01*
X90687222Y-98292991D01*
X90603557Y-98136466D01*
X90552037Y-97966627D01*
X90534641Y-97790000D01*
X90552037Y-97613373D01*
X90603557Y-97443534D01*
X90687222Y-97287009D01*
X90716552Y-97251271D01*
X90799814Y-97149814D01*
X90901271Y-97066552D01*
X90937009Y-97037222D01*
X91093534Y-96953557D01*
X91263373Y-96902037D01*
X91329558Y-96895518D01*
X91395740Y-96889000D01*
X91484260Y-96889000D01*
X91550442Y-96895518D01*
X91550442Y-96895518D01*
G37*
G36*
X94090442Y-96895518D02*
G01*
X94156627Y-96902037D01*
X94326466Y-96953557D01*
X94482991Y-97037222D01*
X94518729Y-97066552D01*
X94620186Y-97149814D01*
X94703448Y-97251271D01*
X94732778Y-97287009D01*
X94816443Y-97443534D01*
X94867963Y-97613373D01*
X94885359Y-97790000D01*
X94867963Y-97966627D01*
X94816443Y-98136466D01*
X94732778Y-98292991D01*
X94703448Y-98328729D01*
X94620186Y-98430186D01*
X94518729Y-98513448D01*
X94482991Y-98542778D01*
X94326466Y-98626443D01*
X94156627Y-98677963D01*
X94090442Y-98684482D01*
X94024260Y-98691000D01*
X93935740Y-98691000D01*
X93869558Y-98684482D01*
X93803373Y-98677963D01*
X93633534Y-98626443D01*
X93477009Y-98542778D01*
X93441271Y-98513448D01*
X93339814Y-98430186D01*
X93256552Y-98328729D01*
X93227222Y-98292991D01*
X93143557Y-98136466D01*
X93092037Y-97966627D01*
X93074641Y-97790000D01*
X93092037Y-97613373D01*
X93143557Y-97443534D01*
X93227222Y-97287009D01*
X93256552Y-97251271D01*
X93339814Y-97149814D01*
X93441271Y-97066552D01*
X93477009Y-97037222D01*
X93633534Y-96953557D01*
X93803373Y-96902037D01*
X93869558Y-96895518D01*
X93935740Y-96889000D01*
X94024260Y-96889000D01*
X94090442Y-96895518D01*
X94090442Y-96895518D01*
G37*
G36*
X114566000Y-98691000D02*
G01*
X112764000Y-98691000D01*
X112764000Y-96889000D01*
X114566000Y-96889000D01*
X114566000Y-98691000D01*
X114566000Y-98691000D01*
G37*
G36*
X86470442Y-96895518D02*
G01*
X86536627Y-96902037D01*
X86706466Y-96953557D01*
X86862991Y-97037222D01*
X86898729Y-97066552D01*
X87000186Y-97149814D01*
X87083448Y-97251271D01*
X87112778Y-97287009D01*
X87196443Y-97443534D01*
X87247963Y-97613373D01*
X87265359Y-97790000D01*
X87247963Y-97966627D01*
X87196443Y-98136466D01*
X87112778Y-98292991D01*
X87083448Y-98328729D01*
X87000186Y-98430186D01*
X86898729Y-98513448D01*
X86862991Y-98542778D01*
X86706466Y-98626443D01*
X86536627Y-98677963D01*
X86470442Y-98684482D01*
X86404260Y-98691000D01*
X86315740Y-98691000D01*
X86249558Y-98684482D01*
X86183373Y-98677963D01*
X86013534Y-98626443D01*
X85857009Y-98542778D01*
X85821271Y-98513448D01*
X85719814Y-98430186D01*
X85636552Y-98328729D01*
X85607222Y-98292991D01*
X85523557Y-98136466D01*
X85472037Y-97966627D01*
X85454641Y-97790000D01*
X85472037Y-97613373D01*
X85523557Y-97443534D01*
X85607222Y-97287009D01*
X85636552Y-97251271D01*
X85719814Y-97149814D01*
X85821271Y-97066552D01*
X85857009Y-97037222D01*
X86013534Y-96953557D01*
X86183373Y-96902037D01*
X86249558Y-96895518D01*
X86315740Y-96889000D01*
X86404260Y-96889000D01*
X86470442Y-96895518D01*
X86470442Y-96895518D01*
G37*
G36*
X116315442Y-96895518D02*
G01*
X116381627Y-96902037D01*
X116551466Y-96953557D01*
X116707991Y-97037222D01*
X116743729Y-97066552D01*
X116845186Y-97149814D01*
X116928448Y-97251271D01*
X116957778Y-97287009D01*
X117041443Y-97443534D01*
X117092963Y-97613373D01*
X117110359Y-97790000D01*
X117092963Y-97966627D01*
X117041443Y-98136466D01*
X116957778Y-98292991D01*
X116928448Y-98328729D01*
X116845186Y-98430186D01*
X116743729Y-98513448D01*
X116707991Y-98542778D01*
X116551466Y-98626443D01*
X116381627Y-98677963D01*
X116315442Y-98684482D01*
X116249260Y-98691000D01*
X116160740Y-98691000D01*
X116094558Y-98684482D01*
X116028373Y-98677963D01*
X115858534Y-98626443D01*
X115702009Y-98542778D01*
X115666271Y-98513448D01*
X115564814Y-98430186D01*
X115481552Y-98328729D01*
X115452222Y-98292991D01*
X115368557Y-98136466D01*
X115317037Y-97966627D01*
X115299641Y-97790000D01*
X115317037Y-97613373D01*
X115368557Y-97443534D01*
X115452222Y-97287009D01*
X115481552Y-97251271D01*
X115564814Y-97149814D01*
X115666271Y-97066552D01*
X115702009Y-97037222D01*
X115858534Y-96953557D01*
X116028373Y-96902037D01*
X116094558Y-96895518D01*
X116160740Y-96889000D01*
X116249260Y-96889000D01*
X116315442Y-96895518D01*
X116315442Y-96895518D01*
G37*
G36*
X118855442Y-96895518D02*
G01*
X118921627Y-96902037D01*
X119091466Y-96953557D01*
X119247991Y-97037222D01*
X119283729Y-97066552D01*
X119385186Y-97149814D01*
X119468448Y-97251271D01*
X119497778Y-97287009D01*
X119581443Y-97443534D01*
X119632963Y-97613373D01*
X119650359Y-97790000D01*
X119632963Y-97966627D01*
X119581443Y-98136466D01*
X119497778Y-98292991D01*
X119468448Y-98328729D01*
X119385186Y-98430186D01*
X119283729Y-98513448D01*
X119247991Y-98542778D01*
X119091466Y-98626443D01*
X118921627Y-98677963D01*
X118855442Y-98684482D01*
X118789260Y-98691000D01*
X118700740Y-98691000D01*
X118634558Y-98684482D01*
X118568373Y-98677963D01*
X118398534Y-98626443D01*
X118242009Y-98542778D01*
X118206271Y-98513448D01*
X118104814Y-98430186D01*
X118021552Y-98328729D01*
X117992222Y-98292991D01*
X117908557Y-98136466D01*
X117857037Y-97966627D01*
X117839641Y-97790000D01*
X117857037Y-97613373D01*
X117908557Y-97443534D01*
X117992222Y-97287009D01*
X118021552Y-97251271D01*
X118104814Y-97149814D01*
X118206271Y-97066552D01*
X118242009Y-97037222D01*
X118398534Y-96953557D01*
X118568373Y-96902037D01*
X118634558Y-96895518D01*
X118700740Y-96889000D01*
X118789260Y-96889000D01*
X118855442Y-96895518D01*
X118855442Y-96895518D01*
G37*
G36*
X121395442Y-96895518D02*
G01*
X121461627Y-96902037D01*
X121631466Y-96953557D01*
X121787991Y-97037222D01*
X121823729Y-97066552D01*
X121925186Y-97149814D01*
X122008448Y-97251271D01*
X122037778Y-97287009D01*
X122121443Y-97443534D01*
X122172963Y-97613373D01*
X122190359Y-97790000D01*
X122172963Y-97966627D01*
X122121443Y-98136466D01*
X122037778Y-98292991D01*
X122008448Y-98328729D01*
X121925186Y-98430186D01*
X121823729Y-98513448D01*
X121787991Y-98542778D01*
X121631466Y-98626443D01*
X121461627Y-98677963D01*
X121395442Y-98684482D01*
X121329260Y-98691000D01*
X121240740Y-98691000D01*
X121174558Y-98684482D01*
X121108373Y-98677963D01*
X120938534Y-98626443D01*
X120782009Y-98542778D01*
X120746271Y-98513448D01*
X120644814Y-98430186D01*
X120561552Y-98328729D01*
X120532222Y-98292991D01*
X120448557Y-98136466D01*
X120397037Y-97966627D01*
X120379641Y-97790000D01*
X120397037Y-97613373D01*
X120448557Y-97443534D01*
X120532222Y-97287009D01*
X120561552Y-97251271D01*
X120644814Y-97149814D01*
X120746271Y-97066552D01*
X120782009Y-97037222D01*
X120938534Y-96953557D01*
X121108373Y-96902037D01*
X121174558Y-96895518D01*
X121240740Y-96889000D01*
X121329260Y-96889000D01*
X121395442Y-96895518D01*
X121395442Y-96895518D01*
G37*
G36*
X96630442Y-96895518D02*
G01*
X96696627Y-96902037D01*
X96866466Y-96953557D01*
X97022991Y-97037222D01*
X97058729Y-97066552D01*
X97160186Y-97149814D01*
X97243448Y-97251271D01*
X97272778Y-97287009D01*
X97356443Y-97443534D01*
X97407963Y-97613373D01*
X97425359Y-97790000D01*
X97407963Y-97966627D01*
X97356443Y-98136466D01*
X97272778Y-98292991D01*
X97243448Y-98328729D01*
X97160186Y-98430186D01*
X97058729Y-98513448D01*
X97022991Y-98542778D01*
X96866466Y-98626443D01*
X96696627Y-98677963D01*
X96630442Y-98684482D01*
X96564260Y-98691000D01*
X96475740Y-98691000D01*
X96409558Y-98684482D01*
X96343373Y-98677963D01*
X96173534Y-98626443D01*
X96017009Y-98542778D01*
X95981271Y-98513448D01*
X95879814Y-98430186D01*
X95796552Y-98328729D01*
X95767222Y-98292991D01*
X95683557Y-98136466D01*
X95632037Y-97966627D01*
X95614641Y-97790000D01*
X95632037Y-97613373D01*
X95683557Y-97443534D01*
X95767222Y-97287009D01*
X95796552Y-97251271D01*
X95879814Y-97149814D01*
X95981271Y-97066552D01*
X96017009Y-97037222D01*
X96173534Y-96953557D01*
X96343373Y-96902037D01*
X96409558Y-96895518D01*
X96475740Y-96889000D01*
X96564260Y-96889000D01*
X96630442Y-96895518D01*
X96630442Y-96895518D01*
G37*
G36*
X123935442Y-96895518D02*
G01*
X124001627Y-96902037D01*
X124171466Y-96953557D01*
X124327991Y-97037222D01*
X124363729Y-97066552D01*
X124465186Y-97149814D01*
X124548448Y-97251271D01*
X124577778Y-97287009D01*
X124661443Y-97443534D01*
X124712963Y-97613373D01*
X124730359Y-97790000D01*
X124712963Y-97966627D01*
X124661443Y-98136466D01*
X124577778Y-98292991D01*
X124548448Y-98328729D01*
X124465186Y-98430186D01*
X124363729Y-98513448D01*
X124327991Y-98542778D01*
X124171466Y-98626443D01*
X124001627Y-98677963D01*
X123935442Y-98684482D01*
X123869260Y-98691000D01*
X123780740Y-98691000D01*
X123714558Y-98684482D01*
X123648373Y-98677963D01*
X123478534Y-98626443D01*
X123322009Y-98542778D01*
X123286271Y-98513448D01*
X123184814Y-98430186D01*
X123101552Y-98328729D01*
X123072222Y-98292991D01*
X122988557Y-98136466D01*
X122937037Y-97966627D01*
X122919641Y-97790000D01*
X122937037Y-97613373D01*
X122988557Y-97443534D01*
X123072222Y-97287009D01*
X123101552Y-97251271D01*
X123184814Y-97149814D01*
X123286271Y-97066552D01*
X123322009Y-97037222D01*
X123478534Y-96953557D01*
X123648373Y-96902037D01*
X123714558Y-96895518D01*
X123780740Y-96889000D01*
X123869260Y-96889000D01*
X123935442Y-96895518D01*
X123935442Y-96895518D01*
G37*
G36*
X131555442Y-96895518D02*
G01*
X131621627Y-96902037D01*
X131791466Y-96953557D01*
X131947991Y-97037222D01*
X131983729Y-97066552D01*
X132085186Y-97149814D01*
X132168448Y-97251271D01*
X132197778Y-97287009D01*
X132281443Y-97443534D01*
X132332963Y-97613373D01*
X132350359Y-97790000D01*
X132332963Y-97966627D01*
X132281443Y-98136466D01*
X132197778Y-98292991D01*
X132168448Y-98328729D01*
X132085186Y-98430186D01*
X131983729Y-98513448D01*
X131947991Y-98542778D01*
X131791466Y-98626443D01*
X131621627Y-98677963D01*
X131555442Y-98684482D01*
X131489260Y-98691000D01*
X131400740Y-98691000D01*
X131334558Y-98684482D01*
X131268373Y-98677963D01*
X131098534Y-98626443D01*
X130942009Y-98542778D01*
X130906271Y-98513448D01*
X130804814Y-98430186D01*
X130721552Y-98328729D01*
X130692222Y-98292991D01*
X130608557Y-98136466D01*
X130557037Y-97966627D01*
X130539641Y-97790000D01*
X130557037Y-97613373D01*
X130608557Y-97443534D01*
X130692222Y-97287009D01*
X130721552Y-97251271D01*
X130804814Y-97149814D01*
X130906271Y-97066552D01*
X130942009Y-97037222D01*
X131098534Y-96953557D01*
X131268373Y-96902037D01*
X131334558Y-96895518D01*
X131400740Y-96889000D01*
X131489260Y-96889000D01*
X131555442Y-96895518D01*
X131555442Y-96895518D01*
G37*
G36*
X126475442Y-96895518D02*
G01*
X126541627Y-96902037D01*
X126711466Y-96953557D01*
X126867991Y-97037222D01*
X126903729Y-97066552D01*
X127005186Y-97149814D01*
X127088448Y-97251271D01*
X127117778Y-97287009D01*
X127201443Y-97443534D01*
X127252963Y-97613373D01*
X127270359Y-97790000D01*
X127252963Y-97966627D01*
X127201443Y-98136466D01*
X127117778Y-98292991D01*
X127088448Y-98328729D01*
X127005186Y-98430186D01*
X126903729Y-98513448D01*
X126867991Y-98542778D01*
X126711466Y-98626443D01*
X126541627Y-98677963D01*
X126475442Y-98684482D01*
X126409260Y-98691000D01*
X126320740Y-98691000D01*
X126254558Y-98684482D01*
X126188373Y-98677963D01*
X126018534Y-98626443D01*
X125862009Y-98542778D01*
X125826271Y-98513448D01*
X125724814Y-98430186D01*
X125641552Y-98328729D01*
X125612222Y-98292991D01*
X125528557Y-98136466D01*
X125477037Y-97966627D01*
X125459641Y-97790000D01*
X125477037Y-97613373D01*
X125528557Y-97443534D01*
X125612222Y-97287009D01*
X125641552Y-97251271D01*
X125724814Y-97149814D01*
X125826271Y-97066552D01*
X125862009Y-97037222D01*
X126018534Y-96953557D01*
X126188373Y-96902037D01*
X126254558Y-96895518D01*
X126320740Y-96889000D01*
X126409260Y-96889000D01*
X126475442Y-96895518D01*
X126475442Y-96895518D01*
G37*
G36*
X129015442Y-96895518D02*
G01*
X129081627Y-96902037D01*
X129251466Y-96953557D01*
X129407991Y-97037222D01*
X129443729Y-97066552D01*
X129545186Y-97149814D01*
X129628448Y-97251271D01*
X129657778Y-97287009D01*
X129741443Y-97443534D01*
X129792963Y-97613373D01*
X129810359Y-97790000D01*
X129792963Y-97966627D01*
X129741443Y-98136466D01*
X129657778Y-98292991D01*
X129628448Y-98328729D01*
X129545186Y-98430186D01*
X129443729Y-98513448D01*
X129407991Y-98542778D01*
X129251466Y-98626443D01*
X129081627Y-98677963D01*
X129015442Y-98684482D01*
X128949260Y-98691000D01*
X128860740Y-98691000D01*
X128794558Y-98684482D01*
X128728373Y-98677963D01*
X128558534Y-98626443D01*
X128402009Y-98542778D01*
X128366271Y-98513448D01*
X128264814Y-98430186D01*
X128181552Y-98328729D01*
X128152222Y-98292991D01*
X128068557Y-98136466D01*
X128017037Y-97966627D01*
X127999641Y-97790000D01*
X128017037Y-97613373D01*
X128068557Y-97443534D01*
X128152222Y-97287009D01*
X128181552Y-97251271D01*
X128264814Y-97149814D01*
X128366271Y-97066552D01*
X128402009Y-97037222D01*
X128558534Y-96953557D01*
X128728373Y-96902037D01*
X128794558Y-96895518D01*
X128860740Y-96889000D01*
X128949260Y-96889000D01*
X129015442Y-96895518D01*
X129015442Y-96895518D01*
G37*
G36*
X99170442Y-96895518D02*
G01*
X99236627Y-96902037D01*
X99406466Y-96953557D01*
X99562991Y-97037222D01*
X99598729Y-97066552D01*
X99700186Y-97149814D01*
X99783448Y-97251271D01*
X99812778Y-97287009D01*
X99896443Y-97443534D01*
X99947963Y-97613373D01*
X99965359Y-97790000D01*
X99947963Y-97966627D01*
X99896443Y-98136466D01*
X99812778Y-98292991D01*
X99783448Y-98328729D01*
X99700186Y-98430186D01*
X99598729Y-98513448D01*
X99562991Y-98542778D01*
X99406466Y-98626443D01*
X99236627Y-98677963D01*
X99170442Y-98684482D01*
X99104260Y-98691000D01*
X99015740Y-98691000D01*
X98949558Y-98684482D01*
X98883373Y-98677963D01*
X98713534Y-98626443D01*
X98557009Y-98542778D01*
X98521271Y-98513448D01*
X98419814Y-98430186D01*
X98336552Y-98328729D01*
X98307222Y-98292991D01*
X98223557Y-98136466D01*
X98172037Y-97966627D01*
X98154641Y-97790000D01*
X98172037Y-97613373D01*
X98223557Y-97443534D01*
X98307222Y-97287009D01*
X98336552Y-97251271D01*
X98419814Y-97149814D01*
X98521271Y-97066552D01*
X98557009Y-97037222D01*
X98713534Y-96953557D01*
X98883373Y-96902037D01*
X98949558Y-96895518D01*
X99015740Y-96889000D01*
X99104260Y-96889000D01*
X99170442Y-96895518D01*
X99170442Y-96895518D01*
G37*
G36*
X101710442Y-96895518D02*
G01*
X101776627Y-96902037D01*
X101946466Y-96953557D01*
X102102991Y-97037222D01*
X102138729Y-97066552D01*
X102240186Y-97149814D01*
X102323448Y-97251271D01*
X102352778Y-97287009D01*
X102436443Y-97443534D01*
X102487963Y-97613373D01*
X102505359Y-97790000D01*
X102487963Y-97966627D01*
X102436443Y-98136466D01*
X102352778Y-98292991D01*
X102323448Y-98328729D01*
X102240186Y-98430186D01*
X102138729Y-98513448D01*
X102102991Y-98542778D01*
X101946466Y-98626443D01*
X101776627Y-98677963D01*
X101710442Y-98684482D01*
X101644260Y-98691000D01*
X101555740Y-98691000D01*
X101489558Y-98684482D01*
X101423373Y-98677963D01*
X101253534Y-98626443D01*
X101097009Y-98542778D01*
X101061271Y-98513448D01*
X100959814Y-98430186D01*
X100876552Y-98328729D01*
X100847222Y-98292991D01*
X100763557Y-98136466D01*
X100712037Y-97966627D01*
X100694641Y-97790000D01*
X100712037Y-97613373D01*
X100763557Y-97443534D01*
X100847222Y-97287009D01*
X100876552Y-97251271D01*
X100959814Y-97149814D01*
X101061271Y-97066552D01*
X101097009Y-97037222D01*
X101253534Y-96953557D01*
X101423373Y-96902037D01*
X101489558Y-96895518D01*
X101555740Y-96889000D01*
X101644260Y-96889000D01*
X101710442Y-96895518D01*
X101710442Y-96895518D01*
G37*
G36*
X167750443Y-94990519D02*
G01*
X167816627Y-94997037D01*
X167986466Y-95048557D01*
X168142991Y-95132222D01*
X168178729Y-95161552D01*
X168280186Y-95244814D01*
X168363448Y-95346271D01*
X168392778Y-95382009D01*
X168476443Y-95538534D01*
X168527963Y-95708373D01*
X168545359Y-95885000D01*
X168527963Y-96061627D01*
X168476443Y-96231466D01*
X168392778Y-96387991D01*
X168363448Y-96423729D01*
X168280186Y-96525186D01*
X168178729Y-96608448D01*
X168142991Y-96637778D01*
X167986466Y-96721443D01*
X167816627Y-96772963D01*
X167750442Y-96779482D01*
X167684260Y-96786000D01*
X167595740Y-96786000D01*
X167529558Y-96779482D01*
X167463373Y-96772963D01*
X167293534Y-96721443D01*
X167137009Y-96637778D01*
X167101271Y-96608448D01*
X166999814Y-96525186D01*
X166916552Y-96423729D01*
X166887222Y-96387991D01*
X166803557Y-96231466D01*
X166752037Y-96061627D01*
X166734641Y-95885000D01*
X166752037Y-95708373D01*
X166803557Y-95538534D01*
X166887222Y-95382009D01*
X166916552Y-95346271D01*
X166999814Y-95244814D01*
X167101271Y-95161552D01*
X167137009Y-95132222D01*
X167293534Y-95048557D01*
X167463373Y-94997037D01*
X167529557Y-94990519D01*
X167595740Y-94984000D01*
X167684260Y-94984000D01*
X167750443Y-94990519D01*
X167750443Y-94990519D01*
G37*
G36*
X165210443Y-94990519D02*
G01*
X165276627Y-94997037D01*
X165446466Y-95048557D01*
X165602991Y-95132222D01*
X165638729Y-95161552D01*
X165740186Y-95244814D01*
X165823448Y-95346271D01*
X165852778Y-95382009D01*
X165936443Y-95538534D01*
X165987963Y-95708373D01*
X166005359Y-95885000D01*
X165987963Y-96061627D01*
X165936443Y-96231466D01*
X165852778Y-96387991D01*
X165823448Y-96423729D01*
X165740186Y-96525186D01*
X165638729Y-96608448D01*
X165602991Y-96637778D01*
X165446466Y-96721443D01*
X165276627Y-96772963D01*
X165210442Y-96779482D01*
X165144260Y-96786000D01*
X165055740Y-96786000D01*
X164989558Y-96779482D01*
X164923373Y-96772963D01*
X164753534Y-96721443D01*
X164597009Y-96637778D01*
X164561271Y-96608448D01*
X164459814Y-96525186D01*
X164376552Y-96423729D01*
X164347222Y-96387991D01*
X164263557Y-96231466D01*
X164212037Y-96061627D01*
X164194641Y-95885000D01*
X164212037Y-95708373D01*
X164263557Y-95538534D01*
X164347222Y-95382009D01*
X164376552Y-95346271D01*
X164459814Y-95244814D01*
X164561271Y-95161552D01*
X164597009Y-95132222D01*
X164753534Y-95048557D01*
X164923373Y-94997037D01*
X164989557Y-94990519D01*
X165055740Y-94984000D01*
X165144260Y-94984000D01*
X165210443Y-94990519D01*
X165210443Y-94990519D01*
G37*
G36*
X148700443Y-94990519D02*
G01*
X148766627Y-94997037D01*
X148936466Y-95048557D01*
X149092991Y-95132222D01*
X149128729Y-95161552D01*
X149230186Y-95244814D01*
X149313448Y-95346271D01*
X149342778Y-95382009D01*
X149426443Y-95538534D01*
X149477963Y-95708373D01*
X149495359Y-95885000D01*
X149477963Y-96061627D01*
X149426443Y-96231466D01*
X149342778Y-96387991D01*
X149313448Y-96423729D01*
X149230186Y-96525186D01*
X149128729Y-96608448D01*
X149092991Y-96637778D01*
X148936466Y-96721443D01*
X148766627Y-96772963D01*
X148700442Y-96779482D01*
X148634260Y-96786000D01*
X148545740Y-96786000D01*
X148479558Y-96779482D01*
X148413373Y-96772963D01*
X148243534Y-96721443D01*
X148087009Y-96637778D01*
X148051271Y-96608448D01*
X147949814Y-96525186D01*
X147866552Y-96423729D01*
X147837222Y-96387991D01*
X147753557Y-96231466D01*
X147702037Y-96061627D01*
X147684641Y-95885000D01*
X147702037Y-95708373D01*
X147753557Y-95538534D01*
X147837222Y-95382009D01*
X147866552Y-95346271D01*
X147949814Y-95244814D01*
X148051271Y-95161552D01*
X148087009Y-95132222D01*
X148243534Y-95048557D01*
X148413373Y-94997037D01*
X148479557Y-94990519D01*
X148545740Y-94984000D01*
X148634260Y-94984000D01*
X148700443Y-94990519D01*
X148700443Y-94990519D01*
G37*
G36*
X151240443Y-94990519D02*
G01*
X151306627Y-94997037D01*
X151476466Y-95048557D01*
X151632991Y-95132222D01*
X151668729Y-95161552D01*
X151770186Y-95244814D01*
X151853448Y-95346271D01*
X151882778Y-95382009D01*
X151966443Y-95538534D01*
X152017963Y-95708373D01*
X152035359Y-95885000D01*
X152017963Y-96061627D01*
X151966443Y-96231466D01*
X151882778Y-96387991D01*
X151853448Y-96423729D01*
X151770186Y-96525186D01*
X151668729Y-96608448D01*
X151632991Y-96637778D01*
X151476466Y-96721443D01*
X151306627Y-96772963D01*
X151240442Y-96779482D01*
X151174260Y-96786000D01*
X151085740Y-96786000D01*
X151019558Y-96779482D01*
X150953373Y-96772963D01*
X150783534Y-96721443D01*
X150627009Y-96637778D01*
X150591271Y-96608448D01*
X150489814Y-96525186D01*
X150406552Y-96423729D01*
X150377222Y-96387991D01*
X150293557Y-96231466D01*
X150242037Y-96061627D01*
X150224641Y-95885000D01*
X150242037Y-95708373D01*
X150293557Y-95538534D01*
X150377222Y-95382009D01*
X150406552Y-95346271D01*
X150489814Y-95244814D01*
X150591271Y-95161552D01*
X150627009Y-95132222D01*
X150783534Y-95048557D01*
X150953373Y-94997037D01*
X151019557Y-94990519D01*
X151085740Y-94984000D01*
X151174260Y-94984000D01*
X151240443Y-94990519D01*
X151240443Y-94990519D01*
G37*
G36*
X165210443Y-92450519D02*
G01*
X165276627Y-92457037D01*
X165446466Y-92508557D01*
X165602991Y-92592222D01*
X165638729Y-92621552D01*
X165740186Y-92704814D01*
X165823448Y-92806271D01*
X165852778Y-92842009D01*
X165936443Y-92998534D01*
X165987963Y-93168373D01*
X166005359Y-93345000D01*
X165987963Y-93521627D01*
X165936443Y-93691466D01*
X165852778Y-93847991D01*
X165823448Y-93883729D01*
X165740186Y-93985186D01*
X165638729Y-94068448D01*
X165602991Y-94097778D01*
X165446466Y-94181443D01*
X165276627Y-94232963D01*
X165210443Y-94239481D01*
X165144260Y-94246000D01*
X165055740Y-94246000D01*
X164989557Y-94239481D01*
X164923373Y-94232963D01*
X164753534Y-94181443D01*
X164597009Y-94097778D01*
X164561271Y-94068448D01*
X164459814Y-93985186D01*
X164376552Y-93883729D01*
X164347222Y-93847991D01*
X164263557Y-93691466D01*
X164212037Y-93521627D01*
X164194641Y-93345000D01*
X164212037Y-93168373D01*
X164263557Y-92998534D01*
X164347222Y-92842009D01*
X164376552Y-92806271D01*
X164459814Y-92704814D01*
X164561271Y-92621552D01*
X164597009Y-92592222D01*
X164753534Y-92508557D01*
X164923373Y-92457037D01*
X164989557Y-92450519D01*
X165055740Y-92444000D01*
X165144260Y-92444000D01*
X165210443Y-92450519D01*
X165210443Y-92450519D01*
G37*
G36*
X151240443Y-92450519D02*
G01*
X151306627Y-92457037D01*
X151476466Y-92508557D01*
X151632991Y-92592222D01*
X151668729Y-92621552D01*
X151770186Y-92704814D01*
X151853448Y-92806271D01*
X151882778Y-92842009D01*
X151966443Y-92998534D01*
X152017963Y-93168373D01*
X152035359Y-93345000D01*
X152017963Y-93521627D01*
X151966443Y-93691466D01*
X151882778Y-93847991D01*
X151853448Y-93883729D01*
X151770186Y-93985186D01*
X151668729Y-94068448D01*
X151632991Y-94097778D01*
X151476466Y-94181443D01*
X151306627Y-94232963D01*
X151240443Y-94239481D01*
X151174260Y-94246000D01*
X151085740Y-94246000D01*
X151019557Y-94239481D01*
X150953373Y-94232963D01*
X150783534Y-94181443D01*
X150627009Y-94097778D01*
X150591271Y-94068448D01*
X150489814Y-93985186D01*
X150406552Y-93883729D01*
X150377222Y-93847991D01*
X150293557Y-93691466D01*
X150242037Y-93521627D01*
X150224641Y-93345000D01*
X150242037Y-93168373D01*
X150293557Y-92998534D01*
X150377222Y-92842009D01*
X150406552Y-92806271D01*
X150489814Y-92704814D01*
X150591271Y-92621552D01*
X150627009Y-92592222D01*
X150783534Y-92508557D01*
X150953373Y-92457037D01*
X151019557Y-92450519D01*
X151085740Y-92444000D01*
X151174260Y-92444000D01*
X151240443Y-92450519D01*
X151240443Y-92450519D01*
G37*
G36*
X148700443Y-92450519D02*
G01*
X148766627Y-92457037D01*
X148936466Y-92508557D01*
X149092991Y-92592222D01*
X149128729Y-92621552D01*
X149230186Y-92704814D01*
X149313448Y-92806271D01*
X149342778Y-92842009D01*
X149426443Y-92998534D01*
X149477963Y-93168373D01*
X149495359Y-93345000D01*
X149477963Y-93521627D01*
X149426443Y-93691466D01*
X149342778Y-93847991D01*
X149313448Y-93883729D01*
X149230186Y-93985186D01*
X149128729Y-94068448D01*
X149092991Y-94097778D01*
X148936466Y-94181443D01*
X148766627Y-94232963D01*
X148700443Y-94239481D01*
X148634260Y-94246000D01*
X148545740Y-94246000D01*
X148479557Y-94239481D01*
X148413373Y-94232963D01*
X148243534Y-94181443D01*
X148087009Y-94097778D01*
X148051271Y-94068448D01*
X147949814Y-93985186D01*
X147866552Y-93883729D01*
X147837222Y-93847991D01*
X147753557Y-93691466D01*
X147702037Y-93521627D01*
X147684641Y-93345000D01*
X147702037Y-93168373D01*
X147753557Y-92998534D01*
X147837222Y-92842009D01*
X147866552Y-92806271D01*
X147949814Y-92704814D01*
X148051271Y-92621552D01*
X148087009Y-92592222D01*
X148243534Y-92508557D01*
X148413373Y-92457037D01*
X148479557Y-92450519D01*
X148545740Y-92444000D01*
X148634260Y-92444000D01*
X148700443Y-92450519D01*
X148700443Y-92450519D01*
G37*
G36*
X167750443Y-92450519D02*
G01*
X167816627Y-92457037D01*
X167986466Y-92508557D01*
X168142991Y-92592222D01*
X168178729Y-92621552D01*
X168280186Y-92704814D01*
X168363448Y-92806271D01*
X168392778Y-92842009D01*
X168476443Y-92998534D01*
X168527963Y-93168373D01*
X168545359Y-93345000D01*
X168527963Y-93521627D01*
X168476443Y-93691466D01*
X168392778Y-93847991D01*
X168363448Y-93883729D01*
X168280186Y-93985186D01*
X168178729Y-94068448D01*
X168142991Y-94097778D01*
X167986466Y-94181443D01*
X167816627Y-94232963D01*
X167750443Y-94239481D01*
X167684260Y-94246000D01*
X167595740Y-94246000D01*
X167529557Y-94239481D01*
X167463373Y-94232963D01*
X167293534Y-94181443D01*
X167137009Y-94097778D01*
X167101271Y-94068448D01*
X166999814Y-93985186D01*
X166916552Y-93883729D01*
X166887222Y-93847991D01*
X166803557Y-93691466D01*
X166752037Y-93521627D01*
X166734641Y-93345000D01*
X166752037Y-93168373D01*
X166803557Y-92998534D01*
X166887222Y-92842009D01*
X166916552Y-92806271D01*
X166999814Y-92704814D01*
X167101271Y-92621552D01*
X167137009Y-92592222D01*
X167293534Y-92508557D01*
X167463373Y-92457037D01*
X167529557Y-92450519D01*
X167595740Y-92444000D01*
X167684260Y-92444000D01*
X167750443Y-92450519D01*
X167750443Y-92450519D01*
G37*
G36*
X167750442Y-89910518D02*
G01*
X167816627Y-89917037D01*
X167986466Y-89968557D01*
X168142991Y-90052222D01*
X168178729Y-90081552D01*
X168280186Y-90164814D01*
X168363448Y-90266271D01*
X168392778Y-90302009D01*
X168476443Y-90458534D01*
X168527963Y-90628373D01*
X168545359Y-90805000D01*
X168527963Y-90981627D01*
X168476443Y-91151466D01*
X168392778Y-91307991D01*
X168363448Y-91343729D01*
X168280186Y-91445186D01*
X168178729Y-91528448D01*
X168142991Y-91557778D01*
X167986466Y-91641443D01*
X167816627Y-91692963D01*
X167750442Y-91699482D01*
X167684260Y-91706000D01*
X167595740Y-91706000D01*
X167529558Y-91699482D01*
X167463373Y-91692963D01*
X167293534Y-91641443D01*
X167137009Y-91557778D01*
X167101271Y-91528448D01*
X166999814Y-91445186D01*
X166916552Y-91343729D01*
X166887222Y-91307991D01*
X166803557Y-91151466D01*
X166752037Y-90981627D01*
X166734641Y-90805000D01*
X166752037Y-90628373D01*
X166803557Y-90458534D01*
X166887222Y-90302009D01*
X166916552Y-90266271D01*
X166999814Y-90164814D01*
X167101271Y-90081552D01*
X167137009Y-90052222D01*
X167293534Y-89968557D01*
X167463373Y-89917037D01*
X167529558Y-89910518D01*
X167595740Y-89904000D01*
X167684260Y-89904000D01*
X167750442Y-89910518D01*
X167750442Y-89910518D01*
G37*
G36*
X148700442Y-89910518D02*
G01*
X148766627Y-89917037D01*
X148936466Y-89968557D01*
X149092991Y-90052222D01*
X149128729Y-90081552D01*
X149230186Y-90164814D01*
X149313448Y-90266271D01*
X149342778Y-90302009D01*
X149426443Y-90458534D01*
X149477963Y-90628373D01*
X149495359Y-90805000D01*
X149477963Y-90981627D01*
X149426443Y-91151466D01*
X149342778Y-91307991D01*
X149313448Y-91343729D01*
X149230186Y-91445186D01*
X149128729Y-91528448D01*
X149092991Y-91557778D01*
X148936466Y-91641443D01*
X148766627Y-91692963D01*
X148700442Y-91699482D01*
X148634260Y-91706000D01*
X148545740Y-91706000D01*
X148479558Y-91699482D01*
X148413373Y-91692963D01*
X148243534Y-91641443D01*
X148087009Y-91557778D01*
X148051271Y-91528448D01*
X147949814Y-91445186D01*
X147866552Y-91343729D01*
X147837222Y-91307991D01*
X147753557Y-91151466D01*
X147702037Y-90981627D01*
X147684641Y-90805000D01*
X147702037Y-90628373D01*
X147753557Y-90458534D01*
X147837222Y-90302009D01*
X147866552Y-90266271D01*
X147949814Y-90164814D01*
X148051271Y-90081552D01*
X148087009Y-90052222D01*
X148243534Y-89968557D01*
X148413373Y-89917037D01*
X148479558Y-89910518D01*
X148545740Y-89904000D01*
X148634260Y-89904000D01*
X148700442Y-89910518D01*
X148700442Y-89910518D01*
G37*
G36*
X151240442Y-89910518D02*
G01*
X151306627Y-89917037D01*
X151476466Y-89968557D01*
X151632991Y-90052222D01*
X151668729Y-90081552D01*
X151770186Y-90164814D01*
X151853448Y-90266271D01*
X151882778Y-90302009D01*
X151966443Y-90458534D01*
X152017963Y-90628373D01*
X152035359Y-90805000D01*
X152017963Y-90981627D01*
X151966443Y-91151466D01*
X151882778Y-91307991D01*
X151853448Y-91343729D01*
X151770186Y-91445186D01*
X151668729Y-91528448D01*
X151632991Y-91557778D01*
X151476466Y-91641443D01*
X151306627Y-91692963D01*
X151240442Y-91699482D01*
X151174260Y-91706000D01*
X151085740Y-91706000D01*
X151019558Y-91699482D01*
X150953373Y-91692963D01*
X150783534Y-91641443D01*
X150627009Y-91557778D01*
X150591271Y-91528448D01*
X150489814Y-91445186D01*
X150406552Y-91343729D01*
X150377222Y-91307991D01*
X150293557Y-91151466D01*
X150242037Y-90981627D01*
X150224641Y-90805000D01*
X150242037Y-90628373D01*
X150293557Y-90458534D01*
X150377222Y-90302009D01*
X150406552Y-90266271D01*
X150489814Y-90164814D01*
X150591271Y-90081552D01*
X150627009Y-90052222D01*
X150783534Y-89968557D01*
X150953373Y-89917037D01*
X151019558Y-89910518D01*
X151085740Y-89904000D01*
X151174260Y-89904000D01*
X151240442Y-89910518D01*
X151240442Y-89910518D01*
G37*
G36*
X165210442Y-89910518D02*
G01*
X165276627Y-89917037D01*
X165446466Y-89968557D01*
X165602991Y-90052222D01*
X165638729Y-90081552D01*
X165740186Y-90164814D01*
X165823448Y-90266271D01*
X165852778Y-90302009D01*
X165936443Y-90458534D01*
X165987963Y-90628373D01*
X166005359Y-90805000D01*
X165987963Y-90981627D01*
X165936443Y-91151466D01*
X165852778Y-91307991D01*
X165823448Y-91343729D01*
X165740186Y-91445186D01*
X165638729Y-91528448D01*
X165602991Y-91557778D01*
X165446466Y-91641443D01*
X165276627Y-91692963D01*
X165210442Y-91699482D01*
X165144260Y-91706000D01*
X165055740Y-91706000D01*
X164989558Y-91699482D01*
X164923373Y-91692963D01*
X164753534Y-91641443D01*
X164597009Y-91557778D01*
X164561271Y-91528448D01*
X164459814Y-91445186D01*
X164376552Y-91343729D01*
X164347222Y-91307991D01*
X164263557Y-91151466D01*
X164212037Y-90981627D01*
X164194641Y-90805000D01*
X164212037Y-90628373D01*
X164263557Y-90458534D01*
X164347222Y-90302009D01*
X164376552Y-90266271D01*
X164459814Y-90164814D01*
X164561271Y-90081552D01*
X164597009Y-90052222D01*
X164753534Y-89968557D01*
X164923373Y-89917037D01*
X164989558Y-89910518D01*
X165055740Y-89904000D01*
X165144260Y-89904000D01*
X165210442Y-89910518D01*
X165210442Y-89910518D01*
G37*
G36*
X151240443Y-87370519D02*
G01*
X151306627Y-87377037D01*
X151476466Y-87428557D01*
X151632991Y-87512222D01*
X151668729Y-87541552D01*
X151770186Y-87624814D01*
X151853448Y-87726271D01*
X151882778Y-87762009D01*
X151966443Y-87918534D01*
X152017963Y-88088373D01*
X152035359Y-88265000D01*
X152017963Y-88441627D01*
X151966443Y-88611466D01*
X151882778Y-88767991D01*
X151853448Y-88803729D01*
X151770186Y-88905186D01*
X151668729Y-88988448D01*
X151632991Y-89017778D01*
X151476466Y-89101443D01*
X151306627Y-89152963D01*
X151240443Y-89159481D01*
X151174260Y-89166000D01*
X151085740Y-89166000D01*
X151019557Y-89159481D01*
X150953373Y-89152963D01*
X150783534Y-89101443D01*
X150627009Y-89017778D01*
X150591271Y-88988448D01*
X150489814Y-88905186D01*
X150406552Y-88803729D01*
X150377222Y-88767991D01*
X150293557Y-88611466D01*
X150242037Y-88441627D01*
X150224641Y-88265000D01*
X150242037Y-88088373D01*
X150293557Y-87918534D01*
X150377222Y-87762009D01*
X150406552Y-87726271D01*
X150489814Y-87624814D01*
X150591271Y-87541552D01*
X150627009Y-87512222D01*
X150783534Y-87428557D01*
X150953373Y-87377037D01*
X151019557Y-87370519D01*
X151085740Y-87364000D01*
X151174260Y-87364000D01*
X151240443Y-87370519D01*
X151240443Y-87370519D01*
G37*
G36*
X167750443Y-87370519D02*
G01*
X167816627Y-87377037D01*
X167986466Y-87428557D01*
X168142991Y-87512222D01*
X168178729Y-87541552D01*
X168280186Y-87624814D01*
X168363448Y-87726271D01*
X168392778Y-87762009D01*
X168476443Y-87918534D01*
X168527963Y-88088373D01*
X168545359Y-88265000D01*
X168527963Y-88441627D01*
X168476443Y-88611466D01*
X168392778Y-88767991D01*
X168363448Y-88803729D01*
X168280186Y-88905186D01*
X168178729Y-88988448D01*
X168142991Y-89017778D01*
X167986466Y-89101443D01*
X167816627Y-89152963D01*
X167750443Y-89159481D01*
X167684260Y-89166000D01*
X167595740Y-89166000D01*
X167529557Y-89159481D01*
X167463373Y-89152963D01*
X167293534Y-89101443D01*
X167137009Y-89017778D01*
X167101271Y-88988448D01*
X166999814Y-88905186D01*
X166916552Y-88803729D01*
X166887222Y-88767991D01*
X166803557Y-88611466D01*
X166752037Y-88441627D01*
X166734641Y-88265000D01*
X166752037Y-88088373D01*
X166803557Y-87918534D01*
X166887222Y-87762009D01*
X166916552Y-87726271D01*
X166999814Y-87624814D01*
X167101271Y-87541552D01*
X167137009Y-87512222D01*
X167293534Y-87428557D01*
X167463373Y-87377037D01*
X167529557Y-87370519D01*
X167595740Y-87364000D01*
X167684260Y-87364000D01*
X167750443Y-87370519D01*
X167750443Y-87370519D01*
G37*
G36*
X165210443Y-87370519D02*
G01*
X165276627Y-87377037D01*
X165446466Y-87428557D01*
X165602991Y-87512222D01*
X165638729Y-87541552D01*
X165740186Y-87624814D01*
X165823448Y-87726271D01*
X165852778Y-87762009D01*
X165936443Y-87918534D01*
X165987963Y-88088373D01*
X166005359Y-88265000D01*
X165987963Y-88441627D01*
X165936443Y-88611466D01*
X165852778Y-88767991D01*
X165823448Y-88803729D01*
X165740186Y-88905186D01*
X165638729Y-88988448D01*
X165602991Y-89017778D01*
X165446466Y-89101443D01*
X165276627Y-89152963D01*
X165210443Y-89159481D01*
X165144260Y-89166000D01*
X165055740Y-89166000D01*
X164989557Y-89159481D01*
X164923373Y-89152963D01*
X164753534Y-89101443D01*
X164597009Y-89017778D01*
X164561271Y-88988448D01*
X164459814Y-88905186D01*
X164376552Y-88803729D01*
X164347222Y-88767991D01*
X164263557Y-88611466D01*
X164212037Y-88441627D01*
X164194641Y-88265000D01*
X164212037Y-88088373D01*
X164263557Y-87918534D01*
X164347222Y-87762009D01*
X164376552Y-87726271D01*
X164459814Y-87624814D01*
X164561271Y-87541552D01*
X164597009Y-87512222D01*
X164753534Y-87428557D01*
X164923373Y-87377037D01*
X164989557Y-87370519D01*
X165055740Y-87364000D01*
X165144260Y-87364000D01*
X165210443Y-87370519D01*
X165210443Y-87370519D01*
G37*
G36*
X148700443Y-87370519D02*
G01*
X148766627Y-87377037D01*
X148936466Y-87428557D01*
X149092991Y-87512222D01*
X149128729Y-87541552D01*
X149230186Y-87624814D01*
X149313448Y-87726271D01*
X149342778Y-87762009D01*
X149426443Y-87918534D01*
X149477963Y-88088373D01*
X149495359Y-88265000D01*
X149477963Y-88441627D01*
X149426443Y-88611466D01*
X149342778Y-88767991D01*
X149313448Y-88803729D01*
X149230186Y-88905186D01*
X149128729Y-88988448D01*
X149092991Y-89017778D01*
X148936466Y-89101443D01*
X148766627Y-89152963D01*
X148700443Y-89159481D01*
X148634260Y-89166000D01*
X148545740Y-89166000D01*
X148479557Y-89159481D01*
X148413373Y-89152963D01*
X148243534Y-89101443D01*
X148087009Y-89017778D01*
X148051271Y-88988448D01*
X147949814Y-88905186D01*
X147866552Y-88803729D01*
X147837222Y-88767991D01*
X147753557Y-88611466D01*
X147702037Y-88441627D01*
X147684641Y-88265000D01*
X147702037Y-88088373D01*
X147753557Y-87918534D01*
X147837222Y-87762009D01*
X147866552Y-87726271D01*
X147949814Y-87624814D01*
X148051271Y-87541552D01*
X148087009Y-87512222D01*
X148243534Y-87428557D01*
X148413373Y-87377037D01*
X148479557Y-87370519D01*
X148545740Y-87364000D01*
X148634260Y-87364000D01*
X148700443Y-87370519D01*
X148700443Y-87370519D01*
G37*
G36*
X167750443Y-84830519D02*
G01*
X167816627Y-84837037D01*
X167986466Y-84888557D01*
X168142991Y-84972222D01*
X168178729Y-85001552D01*
X168280186Y-85084814D01*
X168363448Y-85186271D01*
X168392778Y-85222009D01*
X168476443Y-85378534D01*
X168527963Y-85548373D01*
X168545359Y-85725000D01*
X168527963Y-85901627D01*
X168476443Y-86071466D01*
X168392778Y-86227991D01*
X168363448Y-86263729D01*
X168280186Y-86365186D01*
X168178729Y-86448448D01*
X168142991Y-86477778D01*
X167986466Y-86561443D01*
X167816627Y-86612963D01*
X167750442Y-86619482D01*
X167684260Y-86626000D01*
X167595740Y-86626000D01*
X167529558Y-86619482D01*
X167463373Y-86612963D01*
X167293534Y-86561443D01*
X167137009Y-86477778D01*
X167101271Y-86448448D01*
X166999814Y-86365186D01*
X166916552Y-86263729D01*
X166887222Y-86227991D01*
X166803557Y-86071466D01*
X166752037Y-85901627D01*
X166734641Y-85725000D01*
X166752037Y-85548373D01*
X166803557Y-85378534D01*
X166887222Y-85222009D01*
X166916552Y-85186271D01*
X166999814Y-85084814D01*
X167101271Y-85001552D01*
X167137009Y-84972222D01*
X167293534Y-84888557D01*
X167463373Y-84837037D01*
X167529557Y-84830519D01*
X167595740Y-84824000D01*
X167684260Y-84824000D01*
X167750443Y-84830519D01*
X167750443Y-84830519D01*
G37*
G36*
X165210443Y-84830519D02*
G01*
X165276627Y-84837037D01*
X165446466Y-84888557D01*
X165602991Y-84972222D01*
X165638729Y-85001552D01*
X165740186Y-85084814D01*
X165823448Y-85186271D01*
X165852778Y-85222009D01*
X165936443Y-85378534D01*
X165987963Y-85548373D01*
X166005359Y-85725000D01*
X165987963Y-85901627D01*
X165936443Y-86071466D01*
X165852778Y-86227991D01*
X165823448Y-86263729D01*
X165740186Y-86365186D01*
X165638729Y-86448448D01*
X165602991Y-86477778D01*
X165446466Y-86561443D01*
X165276627Y-86612963D01*
X165210442Y-86619482D01*
X165144260Y-86626000D01*
X165055740Y-86626000D01*
X164989558Y-86619482D01*
X164923373Y-86612963D01*
X164753534Y-86561443D01*
X164597009Y-86477778D01*
X164561271Y-86448448D01*
X164459814Y-86365186D01*
X164376552Y-86263729D01*
X164347222Y-86227991D01*
X164263557Y-86071466D01*
X164212037Y-85901627D01*
X164194641Y-85725000D01*
X164212037Y-85548373D01*
X164263557Y-85378534D01*
X164347222Y-85222009D01*
X164376552Y-85186271D01*
X164459814Y-85084814D01*
X164561271Y-85001552D01*
X164597009Y-84972222D01*
X164753534Y-84888557D01*
X164923373Y-84837037D01*
X164989557Y-84830519D01*
X165055740Y-84824000D01*
X165144260Y-84824000D01*
X165210443Y-84830519D01*
X165210443Y-84830519D01*
G37*
G36*
X151240443Y-84830519D02*
G01*
X151306627Y-84837037D01*
X151476466Y-84888557D01*
X151632991Y-84972222D01*
X151668729Y-85001552D01*
X151770186Y-85084814D01*
X151853448Y-85186271D01*
X151882778Y-85222009D01*
X151966443Y-85378534D01*
X152017963Y-85548373D01*
X152035359Y-85725000D01*
X152017963Y-85901627D01*
X151966443Y-86071466D01*
X151882778Y-86227991D01*
X151853448Y-86263729D01*
X151770186Y-86365186D01*
X151668729Y-86448448D01*
X151632991Y-86477778D01*
X151476466Y-86561443D01*
X151306627Y-86612963D01*
X151240442Y-86619482D01*
X151174260Y-86626000D01*
X151085740Y-86626000D01*
X151019558Y-86619482D01*
X150953373Y-86612963D01*
X150783534Y-86561443D01*
X150627009Y-86477778D01*
X150591271Y-86448448D01*
X150489814Y-86365186D01*
X150406552Y-86263729D01*
X150377222Y-86227991D01*
X150293557Y-86071466D01*
X150242037Y-85901627D01*
X150224641Y-85725000D01*
X150242037Y-85548373D01*
X150293557Y-85378534D01*
X150377222Y-85222009D01*
X150406552Y-85186271D01*
X150489814Y-85084814D01*
X150591271Y-85001552D01*
X150627009Y-84972222D01*
X150783534Y-84888557D01*
X150953373Y-84837037D01*
X151019557Y-84830519D01*
X151085740Y-84824000D01*
X151174260Y-84824000D01*
X151240443Y-84830519D01*
X151240443Y-84830519D01*
G37*
G36*
X148700443Y-84830519D02*
G01*
X148766627Y-84837037D01*
X148936466Y-84888557D01*
X149092991Y-84972222D01*
X149128729Y-85001552D01*
X149230186Y-85084814D01*
X149313448Y-85186271D01*
X149342778Y-85222009D01*
X149426443Y-85378534D01*
X149477963Y-85548373D01*
X149495359Y-85725000D01*
X149477963Y-85901627D01*
X149426443Y-86071466D01*
X149342778Y-86227991D01*
X149313448Y-86263729D01*
X149230186Y-86365186D01*
X149128729Y-86448448D01*
X149092991Y-86477778D01*
X148936466Y-86561443D01*
X148766627Y-86612963D01*
X148700442Y-86619482D01*
X148634260Y-86626000D01*
X148545740Y-86626000D01*
X148479558Y-86619482D01*
X148413373Y-86612963D01*
X148243534Y-86561443D01*
X148087009Y-86477778D01*
X148051271Y-86448448D01*
X147949814Y-86365186D01*
X147866552Y-86263729D01*
X147837222Y-86227991D01*
X147753557Y-86071466D01*
X147702037Y-85901627D01*
X147684641Y-85725000D01*
X147702037Y-85548373D01*
X147753557Y-85378534D01*
X147837222Y-85222009D01*
X147866552Y-85186271D01*
X147949814Y-85084814D01*
X148051271Y-85001552D01*
X148087009Y-84972222D01*
X148243534Y-84888557D01*
X148413373Y-84837037D01*
X148479557Y-84830519D01*
X148545740Y-84824000D01*
X148634260Y-84824000D01*
X148700443Y-84830519D01*
X148700443Y-84830519D01*
G37*
G36*
X148700443Y-82290519D02*
G01*
X148766627Y-82297037D01*
X148936466Y-82348557D01*
X149092991Y-82432222D01*
X149128729Y-82461552D01*
X149230186Y-82544814D01*
X149313448Y-82646271D01*
X149342778Y-82682009D01*
X149426443Y-82838534D01*
X149477963Y-83008373D01*
X149495359Y-83185000D01*
X149477963Y-83361627D01*
X149426443Y-83531466D01*
X149342778Y-83687991D01*
X149313448Y-83723729D01*
X149230186Y-83825186D01*
X149128729Y-83908448D01*
X149092991Y-83937778D01*
X148936466Y-84021443D01*
X148766627Y-84072963D01*
X148700443Y-84079481D01*
X148634260Y-84086000D01*
X148545740Y-84086000D01*
X148479557Y-84079481D01*
X148413373Y-84072963D01*
X148243534Y-84021443D01*
X148087009Y-83937778D01*
X148051271Y-83908448D01*
X147949814Y-83825186D01*
X147866552Y-83723729D01*
X147837222Y-83687991D01*
X147753557Y-83531466D01*
X147702037Y-83361627D01*
X147684641Y-83185000D01*
X147702037Y-83008373D01*
X147753557Y-82838534D01*
X147837222Y-82682009D01*
X147866552Y-82646271D01*
X147949814Y-82544814D01*
X148051271Y-82461552D01*
X148087009Y-82432222D01*
X148243534Y-82348557D01*
X148413373Y-82297037D01*
X148479557Y-82290519D01*
X148545740Y-82284000D01*
X148634260Y-82284000D01*
X148700443Y-82290519D01*
X148700443Y-82290519D01*
G37*
G36*
X151240443Y-82290519D02*
G01*
X151306627Y-82297037D01*
X151476466Y-82348557D01*
X151632991Y-82432222D01*
X151668729Y-82461552D01*
X151770186Y-82544814D01*
X151853448Y-82646271D01*
X151882778Y-82682009D01*
X151966443Y-82838534D01*
X152017963Y-83008373D01*
X152035359Y-83185000D01*
X152017963Y-83361627D01*
X151966443Y-83531466D01*
X151882778Y-83687991D01*
X151853448Y-83723729D01*
X151770186Y-83825186D01*
X151668729Y-83908448D01*
X151632991Y-83937778D01*
X151476466Y-84021443D01*
X151306627Y-84072963D01*
X151240443Y-84079481D01*
X151174260Y-84086000D01*
X151085740Y-84086000D01*
X151019557Y-84079481D01*
X150953373Y-84072963D01*
X150783534Y-84021443D01*
X150627009Y-83937778D01*
X150591271Y-83908448D01*
X150489814Y-83825186D01*
X150406552Y-83723729D01*
X150377222Y-83687991D01*
X150293557Y-83531466D01*
X150242037Y-83361627D01*
X150224641Y-83185000D01*
X150242037Y-83008373D01*
X150293557Y-82838534D01*
X150377222Y-82682009D01*
X150406552Y-82646271D01*
X150489814Y-82544814D01*
X150591271Y-82461552D01*
X150627009Y-82432222D01*
X150783534Y-82348557D01*
X150953373Y-82297037D01*
X151019557Y-82290519D01*
X151085740Y-82284000D01*
X151174260Y-82284000D01*
X151240443Y-82290519D01*
X151240443Y-82290519D01*
G37*
G36*
X167750443Y-82290519D02*
G01*
X167816627Y-82297037D01*
X167986466Y-82348557D01*
X168142991Y-82432222D01*
X168178729Y-82461552D01*
X168280186Y-82544814D01*
X168363448Y-82646271D01*
X168392778Y-82682009D01*
X168476443Y-82838534D01*
X168527963Y-83008373D01*
X168545359Y-83185000D01*
X168527963Y-83361627D01*
X168476443Y-83531466D01*
X168392778Y-83687991D01*
X168363448Y-83723729D01*
X168280186Y-83825186D01*
X168178729Y-83908448D01*
X168142991Y-83937778D01*
X167986466Y-84021443D01*
X167816627Y-84072963D01*
X167750443Y-84079481D01*
X167684260Y-84086000D01*
X167595740Y-84086000D01*
X167529557Y-84079481D01*
X167463373Y-84072963D01*
X167293534Y-84021443D01*
X167137009Y-83937778D01*
X167101271Y-83908448D01*
X166999814Y-83825186D01*
X166916552Y-83723729D01*
X166887222Y-83687991D01*
X166803557Y-83531466D01*
X166752037Y-83361627D01*
X166734641Y-83185000D01*
X166752037Y-83008373D01*
X166803557Y-82838534D01*
X166887222Y-82682009D01*
X166916552Y-82646271D01*
X166999814Y-82544814D01*
X167101271Y-82461552D01*
X167137009Y-82432222D01*
X167293534Y-82348557D01*
X167463373Y-82297037D01*
X167529557Y-82290519D01*
X167595740Y-82284000D01*
X167684260Y-82284000D01*
X167750443Y-82290519D01*
X167750443Y-82290519D01*
G37*
G36*
X165210443Y-82290519D02*
G01*
X165276627Y-82297037D01*
X165446466Y-82348557D01*
X165602991Y-82432222D01*
X165638729Y-82461552D01*
X165740186Y-82544814D01*
X165823448Y-82646271D01*
X165852778Y-82682009D01*
X165936443Y-82838534D01*
X165987963Y-83008373D01*
X166005359Y-83185000D01*
X165987963Y-83361627D01*
X165936443Y-83531466D01*
X165852778Y-83687991D01*
X165823448Y-83723729D01*
X165740186Y-83825186D01*
X165638729Y-83908448D01*
X165602991Y-83937778D01*
X165446466Y-84021443D01*
X165276627Y-84072963D01*
X165210443Y-84079481D01*
X165144260Y-84086000D01*
X165055740Y-84086000D01*
X164989557Y-84079481D01*
X164923373Y-84072963D01*
X164753534Y-84021443D01*
X164597009Y-83937778D01*
X164561271Y-83908448D01*
X164459814Y-83825186D01*
X164376552Y-83723729D01*
X164347222Y-83687991D01*
X164263557Y-83531466D01*
X164212037Y-83361627D01*
X164194641Y-83185000D01*
X164212037Y-83008373D01*
X164263557Y-82838534D01*
X164347222Y-82682009D01*
X164376552Y-82646271D01*
X164459814Y-82544814D01*
X164561271Y-82461552D01*
X164597009Y-82432222D01*
X164753534Y-82348557D01*
X164923373Y-82297037D01*
X164989557Y-82290519D01*
X165055740Y-82284000D01*
X165144260Y-82284000D01*
X165210443Y-82290519D01*
X165210443Y-82290519D01*
G37*
G36*
X91550442Y-80385518D02*
G01*
X91616627Y-80392037D01*
X91786466Y-80443557D01*
X91942991Y-80527222D01*
X91978729Y-80556552D01*
X92080186Y-80639814D01*
X92163448Y-80741271D01*
X92192778Y-80777009D01*
X92276443Y-80933534D01*
X92327963Y-81103373D01*
X92345359Y-81280000D01*
X92327963Y-81456627D01*
X92276443Y-81626466D01*
X92192778Y-81782991D01*
X92163448Y-81818729D01*
X92080186Y-81920186D01*
X91978729Y-82003448D01*
X91942991Y-82032778D01*
X91786466Y-82116443D01*
X91616627Y-82167963D01*
X91550443Y-82174481D01*
X91484260Y-82181000D01*
X91395740Y-82181000D01*
X91329557Y-82174481D01*
X91263373Y-82167963D01*
X91093534Y-82116443D01*
X90937009Y-82032778D01*
X90901271Y-82003448D01*
X90799814Y-81920186D01*
X90716552Y-81818729D01*
X90687222Y-81782991D01*
X90603557Y-81626466D01*
X90552037Y-81456627D01*
X90534641Y-81280000D01*
X90552037Y-81103373D01*
X90603557Y-80933534D01*
X90687222Y-80777009D01*
X90716552Y-80741271D01*
X90799814Y-80639814D01*
X90901271Y-80556552D01*
X90937009Y-80527222D01*
X91093534Y-80443557D01*
X91263373Y-80392037D01*
X91329558Y-80385518D01*
X91395740Y-80379000D01*
X91484260Y-80379000D01*
X91550442Y-80385518D01*
X91550442Y-80385518D01*
G37*
G36*
X94090442Y-80385518D02*
G01*
X94156627Y-80392037D01*
X94326466Y-80443557D01*
X94482991Y-80527222D01*
X94518729Y-80556552D01*
X94620186Y-80639814D01*
X94703448Y-80741271D01*
X94732778Y-80777009D01*
X94816443Y-80933534D01*
X94867963Y-81103373D01*
X94885359Y-81280000D01*
X94867963Y-81456627D01*
X94816443Y-81626466D01*
X94732778Y-81782991D01*
X94703448Y-81818729D01*
X94620186Y-81920186D01*
X94518729Y-82003448D01*
X94482991Y-82032778D01*
X94326466Y-82116443D01*
X94156627Y-82167963D01*
X94090443Y-82174481D01*
X94024260Y-82181000D01*
X93935740Y-82181000D01*
X93869557Y-82174481D01*
X93803373Y-82167963D01*
X93633534Y-82116443D01*
X93477009Y-82032778D01*
X93441271Y-82003448D01*
X93339814Y-81920186D01*
X93256552Y-81818729D01*
X93227222Y-81782991D01*
X93143557Y-81626466D01*
X93092037Y-81456627D01*
X93074641Y-81280000D01*
X93092037Y-81103373D01*
X93143557Y-80933534D01*
X93227222Y-80777009D01*
X93256552Y-80741271D01*
X93339814Y-80639814D01*
X93441271Y-80556552D01*
X93477009Y-80527222D01*
X93633534Y-80443557D01*
X93803373Y-80392037D01*
X93869558Y-80385518D01*
X93935740Y-80379000D01*
X94024260Y-80379000D01*
X94090442Y-80385518D01*
X94090442Y-80385518D01*
G37*
G36*
X96630442Y-80385518D02*
G01*
X96696627Y-80392037D01*
X96866466Y-80443557D01*
X97022991Y-80527222D01*
X97058729Y-80556552D01*
X97160186Y-80639814D01*
X97243448Y-80741271D01*
X97272778Y-80777009D01*
X97356443Y-80933534D01*
X97407963Y-81103373D01*
X97425359Y-81280000D01*
X97407963Y-81456627D01*
X97356443Y-81626466D01*
X97272778Y-81782991D01*
X97243448Y-81818729D01*
X97160186Y-81920186D01*
X97058729Y-82003448D01*
X97022991Y-82032778D01*
X96866466Y-82116443D01*
X96696627Y-82167963D01*
X96630443Y-82174481D01*
X96564260Y-82181000D01*
X96475740Y-82181000D01*
X96409557Y-82174481D01*
X96343373Y-82167963D01*
X96173534Y-82116443D01*
X96017009Y-82032778D01*
X95981271Y-82003448D01*
X95879814Y-81920186D01*
X95796552Y-81818729D01*
X95767222Y-81782991D01*
X95683557Y-81626466D01*
X95632037Y-81456627D01*
X95614641Y-81280000D01*
X95632037Y-81103373D01*
X95683557Y-80933534D01*
X95767222Y-80777009D01*
X95796552Y-80741271D01*
X95879814Y-80639814D01*
X95981271Y-80556552D01*
X96017009Y-80527222D01*
X96173534Y-80443557D01*
X96343373Y-80392037D01*
X96409558Y-80385518D01*
X96475740Y-80379000D01*
X96564260Y-80379000D01*
X96630442Y-80385518D01*
X96630442Y-80385518D01*
G37*
G36*
X99170442Y-80385518D02*
G01*
X99236627Y-80392037D01*
X99406466Y-80443557D01*
X99562991Y-80527222D01*
X99598729Y-80556552D01*
X99700186Y-80639814D01*
X99783448Y-80741271D01*
X99812778Y-80777009D01*
X99896443Y-80933534D01*
X99947963Y-81103373D01*
X99965359Y-81280000D01*
X99947963Y-81456627D01*
X99896443Y-81626466D01*
X99812778Y-81782991D01*
X99783448Y-81818729D01*
X99700186Y-81920186D01*
X99598729Y-82003448D01*
X99562991Y-82032778D01*
X99406466Y-82116443D01*
X99236627Y-82167963D01*
X99170443Y-82174481D01*
X99104260Y-82181000D01*
X99015740Y-82181000D01*
X98949557Y-82174481D01*
X98883373Y-82167963D01*
X98713534Y-82116443D01*
X98557009Y-82032778D01*
X98521271Y-82003448D01*
X98419814Y-81920186D01*
X98336552Y-81818729D01*
X98307222Y-81782991D01*
X98223557Y-81626466D01*
X98172037Y-81456627D01*
X98154641Y-81280000D01*
X98172037Y-81103373D01*
X98223557Y-80933534D01*
X98307222Y-80777009D01*
X98336552Y-80741271D01*
X98419814Y-80639814D01*
X98521271Y-80556552D01*
X98557009Y-80527222D01*
X98713534Y-80443557D01*
X98883373Y-80392037D01*
X98949558Y-80385518D01*
X99015740Y-80379000D01*
X99104260Y-80379000D01*
X99170442Y-80385518D01*
X99170442Y-80385518D01*
G37*
G36*
X102501000Y-82181000D02*
G01*
X100699000Y-82181000D01*
X100699000Y-80379000D01*
X102501000Y-80379000D01*
X102501000Y-82181000D01*
X102501000Y-82181000D01*
G37*
G36*
X113775442Y-80385518D02*
G01*
X113841627Y-80392037D01*
X114011466Y-80443557D01*
X114167991Y-80527222D01*
X114203729Y-80556552D01*
X114305186Y-80639814D01*
X114388448Y-80741271D01*
X114417778Y-80777009D01*
X114501443Y-80933534D01*
X114552963Y-81103373D01*
X114570359Y-81280000D01*
X114552963Y-81456627D01*
X114501443Y-81626466D01*
X114417778Y-81782991D01*
X114388448Y-81818729D01*
X114305186Y-81920186D01*
X114203729Y-82003448D01*
X114167991Y-82032778D01*
X114011466Y-82116443D01*
X113841627Y-82167963D01*
X113775443Y-82174481D01*
X113709260Y-82181000D01*
X113620740Y-82181000D01*
X113554557Y-82174481D01*
X113488373Y-82167963D01*
X113318534Y-82116443D01*
X113162009Y-82032778D01*
X113126271Y-82003448D01*
X113024814Y-81920186D01*
X112941552Y-81818729D01*
X112912222Y-81782991D01*
X112828557Y-81626466D01*
X112777037Y-81456627D01*
X112759641Y-81280000D01*
X112777037Y-81103373D01*
X112828557Y-80933534D01*
X112912222Y-80777009D01*
X112941552Y-80741271D01*
X113024814Y-80639814D01*
X113126271Y-80556552D01*
X113162009Y-80527222D01*
X113318534Y-80443557D01*
X113488373Y-80392037D01*
X113554558Y-80385518D01*
X113620740Y-80379000D01*
X113709260Y-80379000D01*
X113775442Y-80385518D01*
X113775442Y-80385518D01*
G37*
G36*
X116315442Y-80385518D02*
G01*
X116381627Y-80392037D01*
X116551466Y-80443557D01*
X116707991Y-80527222D01*
X116743729Y-80556552D01*
X116845186Y-80639814D01*
X116928448Y-80741271D01*
X116957778Y-80777009D01*
X117041443Y-80933534D01*
X117092963Y-81103373D01*
X117110359Y-81280000D01*
X117092963Y-81456627D01*
X117041443Y-81626466D01*
X116957778Y-81782991D01*
X116928448Y-81818729D01*
X116845186Y-81920186D01*
X116743729Y-82003448D01*
X116707991Y-82032778D01*
X116551466Y-82116443D01*
X116381627Y-82167963D01*
X116315443Y-82174481D01*
X116249260Y-82181000D01*
X116160740Y-82181000D01*
X116094557Y-82174481D01*
X116028373Y-82167963D01*
X115858534Y-82116443D01*
X115702009Y-82032778D01*
X115666271Y-82003448D01*
X115564814Y-81920186D01*
X115481552Y-81818729D01*
X115452222Y-81782991D01*
X115368557Y-81626466D01*
X115317037Y-81456627D01*
X115299641Y-81280000D01*
X115317037Y-81103373D01*
X115368557Y-80933534D01*
X115452222Y-80777009D01*
X115481552Y-80741271D01*
X115564814Y-80639814D01*
X115666271Y-80556552D01*
X115702009Y-80527222D01*
X115858534Y-80443557D01*
X116028373Y-80392037D01*
X116094558Y-80385518D01*
X116160740Y-80379000D01*
X116249260Y-80379000D01*
X116315442Y-80385518D01*
X116315442Y-80385518D01*
G37*
G36*
X118855442Y-80385518D02*
G01*
X118921627Y-80392037D01*
X119091466Y-80443557D01*
X119247991Y-80527222D01*
X119283729Y-80556552D01*
X119385186Y-80639814D01*
X119468448Y-80741271D01*
X119497778Y-80777009D01*
X119581443Y-80933534D01*
X119632963Y-81103373D01*
X119650359Y-81280000D01*
X119632963Y-81456627D01*
X119581443Y-81626466D01*
X119497778Y-81782991D01*
X119468448Y-81818729D01*
X119385186Y-81920186D01*
X119283729Y-82003448D01*
X119247991Y-82032778D01*
X119091466Y-82116443D01*
X118921627Y-82167963D01*
X118855443Y-82174481D01*
X118789260Y-82181000D01*
X118700740Y-82181000D01*
X118634557Y-82174481D01*
X118568373Y-82167963D01*
X118398534Y-82116443D01*
X118242009Y-82032778D01*
X118206271Y-82003448D01*
X118104814Y-81920186D01*
X118021552Y-81818729D01*
X117992222Y-81782991D01*
X117908557Y-81626466D01*
X117857037Y-81456627D01*
X117839641Y-81280000D01*
X117857037Y-81103373D01*
X117908557Y-80933534D01*
X117992222Y-80777009D01*
X118021552Y-80741271D01*
X118104814Y-80639814D01*
X118206271Y-80556552D01*
X118242009Y-80527222D01*
X118398534Y-80443557D01*
X118568373Y-80392037D01*
X118634558Y-80385518D01*
X118700740Y-80379000D01*
X118789260Y-80379000D01*
X118855442Y-80385518D01*
X118855442Y-80385518D01*
G37*
G36*
X131555442Y-80385518D02*
G01*
X131621627Y-80392037D01*
X131791466Y-80443557D01*
X131947991Y-80527222D01*
X131983729Y-80556552D01*
X132085186Y-80639814D01*
X132168448Y-80741271D01*
X132197778Y-80777009D01*
X132281443Y-80933534D01*
X132332963Y-81103373D01*
X132350359Y-81280000D01*
X132332963Y-81456627D01*
X132281443Y-81626466D01*
X132197778Y-81782991D01*
X132168448Y-81818729D01*
X132085186Y-81920186D01*
X131983729Y-82003448D01*
X131947991Y-82032778D01*
X131791466Y-82116443D01*
X131621627Y-82167963D01*
X131555443Y-82174481D01*
X131489260Y-82181000D01*
X131400740Y-82181000D01*
X131334557Y-82174481D01*
X131268373Y-82167963D01*
X131098534Y-82116443D01*
X130942009Y-82032778D01*
X130906271Y-82003448D01*
X130804814Y-81920186D01*
X130721552Y-81818729D01*
X130692222Y-81782991D01*
X130608557Y-81626466D01*
X130557037Y-81456627D01*
X130539641Y-81280000D01*
X130557037Y-81103373D01*
X130608557Y-80933534D01*
X130692222Y-80777009D01*
X130721552Y-80741271D01*
X130804814Y-80639814D01*
X130906271Y-80556552D01*
X130942009Y-80527222D01*
X131098534Y-80443557D01*
X131268373Y-80392037D01*
X131334558Y-80385518D01*
X131400740Y-80379000D01*
X131489260Y-80379000D01*
X131555442Y-80385518D01*
X131555442Y-80385518D01*
G37*
G36*
X89010442Y-80385518D02*
G01*
X89076627Y-80392037D01*
X89246466Y-80443557D01*
X89402991Y-80527222D01*
X89438729Y-80556552D01*
X89540186Y-80639814D01*
X89623448Y-80741271D01*
X89652778Y-80777009D01*
X89736443Y-80933534D01*
X89787963Y-81103373D01*
X89805359Y-81280000D01*
X89787963Y-81456627D01*
X89736443Y-81626466D01*
X89652778Y-81782991D01*
X89623448Y-81818729D01*
X89540186Y-81920186D01*
X89438729Y-82003448D01*
X89402991Y-82032778D01*
X89246466Y-82116443D01*
X89076627Y-82167963D01*
X89010443Y-82174481D01*
X88944260Y-82181000D01*
X88855740Y-82181000D01*
X88789557Y-82174481D01*
X88723373Y-82167963D01*
X88553534Y-82116443D01*
X88397009Y-82032778D01*
X88361271Y-82003448D01*
X88259814Y-81920186D01*
X88176552Y-81818729D01*
X88147222Y-81782991D01*
X88063557Y-81626466D01*
X88012037Y-81456627D01*
X87994641Y-81280000D01*
X88012037Y-81103373D01*
X88063557Y-80933534D01*
X88147222Y-80777009D01*
X88176552Y-80741271D01*
X88259814Y-80639814D01*
X88361271Y-80556552D01*
X88397009Y-80527222D01*
X88553534Y-80443557D01*
X88723373Y-80392037D01*
X88789558Y-80385518D01*
X88855740Y-80379000D01*
X88944260Y-80379000D01*
X89010442Y-80385518D01*
X89010442Y-80385518D01*
G37*
G36*
X86470442Y-80385518D02*
G01*
X86536627Y-80392037D01*
X86706466Y-80443557D01*
X86862991Y-80527222D01*
X86898729Y-80556552D01*
X87000186Y-80639814D01*
X87083448Y-80741271D01*
X87112778Y-80777009D01*
X87196443Y-80933534D01*
X87247963Y-81103373D01*
X87265359Y-81280000D01*
X87247963Y-81456627D01*
X87196443Y-81626466D01*
X87112778Y-81782991D01*
X87083448Y-81818729D01*
X87000186Y-81920186D01*
X86898729Y-82003448D01*
X86862991Y-82032778D01*
X86706466Y-82116443D01*
X86536627Y-82167963D01*
X86470443Y-82174481D01*
X86404260Y-82181000D01*
X86315740Y-82181000D01*
X86249557Y-82174481D01*
X86183373Y-82167963D01*
X86013534Y-82116443D01*
X85857009Y-82032778D01*
X85821271Y-82003448D01*
X85719814Y-81920186D01*
X85636552Y-81818729D01*
X85607222Y-81782991D01*
X85523557Y-81626466D01*
X85472037Y-81456627D01*
X85454641Y-81280000D01*
X85472037Y-81103373D01*
X85523557Y-80933534D01*
X85607222Y-80777009D01*
X85636552Y-80741271D01*
X85719814Y-80639814D01*
X85821271Y-80556552D01*
X85857009Y-80527222D01*
X86013534Y-80443557D01*
X86183373Y-80392037D01*
X86249558Y-80385518D01*
X86315740Y-80379000D01*
X86404260Y-80379000D01*
X86470442Y-80385518D01*
X86470442Y-80385518D01*
G37*
G36*
X83930442Y-80385518D02*
G01*
X83996627Y-80392037D01*
X84166466Y-80443557D01*
X84322991Y-80527222D01*
X84358729Y-80556552D01*
X84460186Y-80639814D01*
X84543448Y-80741271D01*
X84572778Y-80777009D01*
X84656443Y-80933534D01*
X84707963Y-81103373D01*
X84725359Y-81280000D01*
X84707963Y-81456627D01*
X84656443Y-81626466D01*
X84572778Y-81782991D01*
X84543448Y-81818729D01*
X84460186Y-81920186D01*
X84358729Y-82003448D01*
X84322991Y-82032778D01*
X84166466Y-82116443D01*
X83996627Y-82167963D01*
X83930443Y-82174481D01*
X83864260Y-82181000D01*
X83775740Y-82181000D01*
X83709557Y-82174481D01*
X83643373Y-82167963D01*
X83473534Y-82116443D01*
X83317009Y-82032778D01*
X83281271Y-82003448D01*
X83179814Y-81920186D01*
X83096552Y-81818729D01*
X83067222Y-81782991D01*
X82983557Y-81626466D01*
X82932037Y-81456627D01*
X82914641Y-81280000D01*
X82932037Y-81103373D01*
X82983557Y-80933534D01*
X83067222Y-80777009D01*
X83096552Y-80741271D01*
X83179814Y-80639814D01*
X83281271Y-80556552D01*
X83317009Y-80527222D01*
X83473534Y-80443557D01*
X83643373Y-80392037D01*
X83709558Y-80385518D01*
X83775740Y-80379000D01*
X83864260Y-80379000D01*
X83930442Y-80385518D01*
X83930442Y-80385518D01*
G37*
G36*
X129015442Y-80385518D02*
G01*
X129081627Y-80392037D01*
X129251466Y-80443557D01*
X129407991Y-80527222D01*
X129443729Y-80556552D01*
X129545186Y-80639814D01*
X129628448Y-80741271D01*
X129657778Y-80777009D01*
X129741443Y-80933534D01*
X129792963Y-81103373D01*
X129810359Y-81280000D01*
X129792963Y-81456627D01*
X129741443Y-81626466D01*
X129657778Y-81782991D01*
X129628448Y-81818729D01*
X129545186Y-81920186D01*
X129443729Y-82003448D01*
X129407991Y-82032778D01*
X129251466Y-82116443D01*
X129081627Y-82167963D01*
X129015443Y-82174481D01*
X128949260Y-82181000D01*
X128860740Y-82181000D01*
X128794557Y-82174481D01*
X128728373Y-82167963D01*
X128558534Y-82116443D01*
X128402009Y-82032778D01*
X128366271Y-82003448D01*
X128264814Y-81920186D01*
X128181552Y-81818729D01*
X128152222Y-81782991D01*
X128068557Y-81626466D01*
X128017037Y-81456627D01*
X127999641Y-81280000D01*
X128017037Y-81103373D01*
X128068557Y-80933534D01*
X128152222Y-80777009D01*
X128181552Y-80741271D01*
X128264814Y-80639814D01*
X128366271Y-80556552D01*
X128402009Y-80527222D01*
X128558534Y-80443557D01*
X128728373Y-80392037D01*
X128794558Y-80385518D01*
X128860740Y-80379000D01*
X128949260Y-80379000D01*
X129015442Y-80385518D01*
X129015442Y-80385518D01*
G37*
G36*
X126475442Y-80385518D02*
G01*
X126541627Y-80392037D01*
X126711466Y-80443557D01*
X126867991Y-80527222D01*
X126903729Y-80556552D01*
X127005186Y-80639814D01*
X127088448Y-80741271D01*
X127117778Y-80777009D01*
X127201443Y-80933534D01*
X127252963Y-81103373D01*
X127270359Y-81280000D01*
X127252963Y-81456627D01*
X127201443Y-81626466D01*
X127117778Y-81782991D01*
X127088448Y-81818729D01*
X127005186Y-81920186D01*
X126903729Y-82003448D01*
X126867991Y-82032778D01*
X126711466Y-82116443D01*
X126541627Y-82167963D01*
X126475443Y-82174481D01*
X126409260Y-82181000D01*
X126320740Y-82181000D01*
X126254557Y-82174481D01*
X126188373Y-82167963D01*
X126018534Y-82116443D01*
X125862009Y-82032778D01*
X125826271Y-82003448D01*
X125724814Y-81920186D01*
X125641552Y-81818729D01*
X125612222Y-81782991D01*
X125528557Y-81626466D01*
X125477037Y-81456627D01*
X125459641Y-81280000D01*
X125477037Y-81103373D01*
X125528557Y-80933534D01*
X125612222Y-80777009D01*
X125641552Y-80741271D01*
X125724814Y-80639814D01*
X125826271Y-80556552D01*
X125862009Y-80527222D01*
X126018534Y-80443557D01*
X126188373Y-80392037D01*
X126254558Y-80385518D01*
X126320740Y-80379000D01*
X126409260Y-80379000D01*
X126475442Y-80385518D01*
X126475442Y-80385518D01*
G37*
G36*
X123935442Y-80385518D02*
G01*
X124001627Y-80392037D01*
X124171466Y-80443557D01*
X124327991Y-80527222D01*
X124363729Y-80556552D01*
X124465186Y-80639814D01*
X124548448Y-80741271D01*
X124577778Y-80777009D01*
X124661443Y-80933534D01*
X124712963Y-81103373D01*
X124730359Y-81280000D01*
X124712963Y-81456627D01*
X124661443Y-81626466D01*
X124577778Y-81782991D01*
X124548448Y-81818729D01*
X124465186Y-81920186D01*
X124363729Y-82003448D01*
X124327991Y-82032778D01*
X124171466Y-82116443D01*
X124001627Y-82167963D01*
X123935443Y-82174481D01*
X123869260Y-82181000D01*
X123780740Y-82181000D01*
X123714557Y-82174481D01*
X123648373Y-82167963D01*
X123478534Y-82116443D01*
X123322009Y-82032778D01*
X123286271Y-82003448D01*
X123184814Y-81920186D01*
X123101552Y-81818729D01*
X123072222Y-81782991D01*
X122988557Y-81626466D01*
X122937037Y-81456627D01*
X122919641Y-81280000D01*
X122937037Y-81103373D01*
X122988557Y-80933534D01*
X123072222Y-80777009D01*
X123101552Y-80741271D01*
X123184814Y-80639814D01*
X123286271Y-80556552D01*
X123322009Y-80527222D01*
X123478534Y-80443557D01*
X123648373Y-80392037D01*
X123714558Y-80385518D01*
X123780740Y-80379000D01*
X123869260Y-80379000D01*
X123935442Y-80385518D01*
X123935442Y-80385518D01*
G37*
G36*
X121395442Y-80385518D02*
G01*
X121461627Y-80392037D01*
X121631466Y-80443557D01*
X121787991Y-80527222D01*
X121823729Y-80556552D01*
X121925186Y-80639814D01*
X122008448Y-80741271D01*
X122037778Y-80777009D01*
X122121443Y-80933534D01*
X122172963Y-81103373D01*
X122190359Y-81280000D01*
X122172963Y-81456627D01*
X122121443Y-81626466D01*
X122037778Y-81782991D01*
X122008448Y-81818729D01*
X121925186Y-81920186D01*
X121823729Y-82003448D01*
X121787991Y-82032778D01*
X121631466Y-82116443D01*
X121461627Y-82167963D01*
X121395443Y-82174481D01*
X121329260Y-82181000D01*
X121240740Y-82181000D01*
X121174557Y-82174481D01*
X121108373Y-82167963D01*
X120938534Y-82116443D01*
X120782009Y-82032778D01*
X120746271Y-82003448D01*
X120644814Y-81920186D01*
X120561552Y-81818729D01*
X120532222Y-81782991D01*
X120448557Y-81626466D01*
X120397037Y-81456627D01*
X120379641Y-81280000D01*
X120397037Y-81103373D01*
X120448557Y-80933534D01*
X120532222Y-80777009D01*
X120561552Y-80741271D01*
X120644814Y-80639814D01*
X120746271Y-80556552D01*
X120782009Y-80527222D01*
X120938534Y-80443557D01*
X121108373Y-80392037D01*
X121174558Y-80385518D01*
X121240740Y-80379000D01*
X121329260Y-80379000D01*
X121395442Y-80385518D01*
X121395442Y-80385518D01*
G37*
G36*
X148700442Y-79750518D02*
G01*
X148766627Y-79757037D01*
X148936466Y-79808557D01*
X149092991Y-79892222D01*
X149128729Y-79921552D01*
X149230186Y-80004814D01*
X149313448Y-80106271D01*
X149342778Y-80142009D01*
X149426443Y-80298534D01*
X149477963Y-80468373D01*
X149495359Y-80645000D01*
X149477963Y-80821627D01*
X149426443Y-80991466D01*
X149342778Y-81147991D01*
X149313448Y-81183729D01*
X149230186Y-81285186D01*
X149128729Y-81368448D01*
X149092991Y-81397778D01*
X148936466Y-81481443D01*
X148766627Y-81532963D01*
X148700442Y-81539482D01*
X148634260Y-81546000D01*
X148545740Y-81546000D01*
X148479558Y-81539482D01*
X148413373Y-81532963D01*
X148243534Y-81481443D01*
X148087009Y-81397778D01*
X148051271Y-81368448D01*
X147949814Y-81285186D01*
X147866552Y-81183729D01*
X147837222Y-81147991D01*
X147753557Y-80991466D01*
X147702037Y-80821627D01*
X147684641Y-80645000D01*
X147702037Y-80468373D01*
X147753557Y-80298534D01*
X147837222Y-80142009D01*
X147866552Y-80106271D01*
X147949814Y-80004814D01*
X148051271Y-79921552D01*
X148087009Y-79892222D01*
X148243534Y-79808557D01*
X148413373Y-79757037D01*
X148479558Y-79750518D01*
X148545740Y-79744000D01*
X148634260Y-79744000D01*
X148700442Y-79750518D01*
X148700442Y-79750518D01*
G37*
G36*
X152031000Y-81546000D02*
G01*
X150229000Y-81546000D01*
X150229000Y-79744000D01*
X152031000Y-79744000D01*
X152031000Y-81546000D01*
X152031000Y-81546000D01*
G37*
G36*
X165210442Y-79750518D02*
G01*
X165276627Y-79757037D01*
X165446466Y-79808557D01*
X165602991Y-79892222D01*
X165638729Y-79921552D01*
X165740186Y-80004814D01*
X165823448Y-80106271D01*
X165852778Y-80142009D01*
X165936443Y-80298534D01*
X165987963Y-80468373D01*
X166005359Y-80645000D01*
X165987963Y-80821627D01*
X165936443Y-80991466D01*
X165852778Y-81147991D01*
X165823448Y-81183729D01*
X165740186Y-81285186D01*
X165638729Y-81368448D01*
X165602991Y-81397778D01*
X165446466Y-81481443D01*
X165276627Y-81532963D01*
X165210442Y-81539482D01*
X165144260Y-81546000D01*
X165055740Y-81546000D01*
X164989558Y-81539482D01*
X164923373Y-81532963D01*
X164753534Y-81481443D01*
X164597009Y-81397778D01*
X164561271Y-81368448D01*
X164459814Y-81285186D01*
X164376552Y-81183729D01*
X164347222Y-81147991D01*
X164263557Y-80991466D01*
X164212037Y-80821627D01*
X164194641Y-80645000D01*
X164212037Y-80468373D01*
X164263557Y-80298534D01*
X164347222Y-80142009D01*
X164376552Y-80106271D01*
X164459814Y-80004814D01*
X164561271Y-79921552D01*
X164597009Y-79892222D01*
X164753534Y-79808557D01*
X164923373Y-79757037D01*
X164989558Y-79750518D01*
X165055740Y-79744000D01*
X165144260Y-79744000D01*
X165210442Y-79750518D01*
X165210442Y-79750518D01*
G37*
G36*
X168541000Y-81546000D02*
G01*
X166739000Y-81546000D01*
X166739000Y-79744000D01*
X168541000Y-79744000D01*
X168541000Y-81546000D01*
X168541000Y-81546000D01*
G37*
G36*
X131555443Y-77845519D02*
G01*
X131621627Y-77852037D01*
X131791466Y-77903557D01*
X131947991Y-77987222D01*
X131983729Y-78016552D01*
X132085186Y-78099814D01*
X132168448Y-78201271D01*
X132197778Y-78237009D01*
X132281443Y-78393534D01*
X132332963Y-78563373D01*
X132350359Y-78740000D01*
X132332963Y-78916627D01*
X132281443Y-79086466D01*
X132197778Y-79242991D01*
X132168448Y-79278729D01*
X132085186Y-79380186D01*
X131983729Y-79463448D01*
X131947991Y-79492778D01*
X131791466Y-79576443D01*
X131621627Y-79627963D01*
X131555442Y-79634482D01*
X131489260Y-79641000D01*
X131400740Y-79641000D01*
X131334558Y-79634482D01*
X131268373Y-79627963D01*
X131098534Y-79576443D01*
X130942009Y-79492778D01*
X130906271Y-79463448D01*
X130804814Y-79380186D01*
X130721552Y-79278729D01*
X130692222Y-79242991D01*
X130608557Y-79086466D01*
X130557037Y-78916627D01*
X130539641Y-78740000D01*
X130557037Y-78563373D01*
X130608557Y-78393534D01*
X130692222Y-78237009D01*
X130721552Y-78201271D01*
X130804814Y-78099814D01*
X130906271Y-78016552D01*
X130942009Y-77987222D01*
X131098534Y-77903557D01*
X131268373Y-77852037D01*
X131334557Y-77845519D01*
X131400740Y-77839000D01*
X131489260Y-77839000D01*
X131555443Y-77845519D01*
X131555443Y-77845519D01*
G37*
G36*
X86470443Y-77845519D02*
G01*
X86536627Y-77852037D01*
X86706466Y-77903557D01*
X86862991Y-77987222D01*
X86898729Y-78016552D01*
X87000186Y-78099814D01*
X87083448Y-78201271D01*
X87112778Y-78237009D01*
X87196443Y-78393534D01*
X87247963Y-78563373D01*
X87265359Y-78740000D01*
X87247963Y-78916627D01*
X87196443Y-79086466D01*
X87112778Y-79242991D01*
X87083448Y-79278729D01*
X87000186Y-79380186D01*
X86898729Y-79463448D01*
X86862991Y-79492778D01*
X86706466Y-79576443D01*
X86536627Y-79627963D01*
X86470442Y-79634482D01*
X86404260Y-79641000D01*
X86315740Y-79641000D01*
X86249558Y-79634482D01*
X86183373Y-79627963D01*
X86013534Y-79576443D01*
X85857009Y-79492778D01*
X85821271Y-79463448D01*
X85719814Y-79380186D01*
X85636552Y-79278729D01*
X85607222Y-79242991D01*
X85523557Y-79086466D01*
X85472037Y-78916627D01*
X85454641Y-78740000D01*
X85472037Y-78563373D01*
X85523557Y-78393534D01*
X85607222Y-78237009D01*
X85636552Y-78201271D01*
X85719814Y-78099814D01*
X85821271Y-78016552D01*
X85857009Y-77987222D01*
X86013534Y-77903557D01*
X86183373Y-77852037D01*
X86249557Y-77845519D01*
X86315740Y-77839000D01*
X86404260Y-77839000D01*
X86470443Y-77845519D01*
X86470443Y-77845519D01*
G37*
G36*
X129015443Y-77845519D02*
G01*
X129081627Y-77852037D01*
X129251466Y-77903557D01*
X129407991Y-77987222D01*
X129443729Y-78016552D01*
X129545186Y-78099814D01*
X129628448Y-78201271D01*
X129657778Y-78237009D01*
X129741443Y-78393534D01*
X129792963Y-78563373D01*
X129810359Y-78740000D01*
X129792963Y-78916627D01*
X129741443Y-79086466D01*
X129657778Y-79242991D01*
X129628448Y-79278729D01*
X129545186Y-79380186D01*
X129443729Y-79463448D01*
X129407991Y-79492778D01*
X129251466Y-79576443D01*
X129081627Y-79627963D01*
X129015442Y-79634482D01*
X128949260Y-79641000D01*
X128860740Y-79641000D01*
X128794558Y-79634482D01*
X128728373Y-79627963D01*
X128558534Y-79576443D01*
X128402009Y-79492778D01*
X128366271Y-79463448D01*
X128264814Y-79380186D01*
X128181552Y-79278729D01*
X128152222Y-79242991D01*
X128068557Y-79086466D01*
X128017037Y-78916627D01*
X127999641Y-78740000D01*
X128017037Y-78563373D01*
X128068557Y-78393534D01*
X128152222Y-78237009D01*
X128181552Y-78201271D01*
X128264814Y-78099814D01*
X128366271Y-78016552D01*
X128402009Y-77987222D01*
X128558534Y-77903557D01*
X128728373Y-77852037D01*
X128794557Y-77845519D01*
X128860740Y-77839000D01*
X128949260Y-77839000D01*
X129015443Y-77845519D01*
X129015443Y-77845519D01*
G37*
G36*
X89010443Y-77845519D02*
G01*
X89076627Y-77852037D01*
X89246466Y-77903557D01*
X89402991Y-77987222D01*
X89438729Y-78016552D01*
X89540186Y-78099814D01*
X89623448Y-78201271D01*
X89652778Y-78237009D01*
X89736443Y-78393534D01*
X89787963Y-78563373D01*
X89805359Y-78740000D01*
X89787963Y-78916627D01*
X89736443Y-79086466D01*
X89652778Y-79242991D01*
X89623448Y-79278729D01*
X89540186Y-79380186D01*
X89438729Y-79463448D01*
X89402991Y-79492778D01*
X89246466Y-79576443D01*
X89076627Y-79627963D01*
X89010442Y-79634482D01*
X88944260Y-79641000D01*
X88855740Y-79641000D01*
X88789558Y-79634482D01*
X88723373Y-79627963D01*
X88553534Y-79576443D01*
X88397009Y-79492778D01*
X88361271Y-79463448D01*
X88259814Y-79380186D01*
X88176552Y-79278729D01*
X88147222Y-79242991D01*
X88063557Y-79086466D01*
X88012037Y-78916627D01*
X87994641Y-78740000D01*
X88012037Y-78563373D01*
X88063557Y-78393534D01*
X88147222Y-78237009D01*
X88176552Y-78201271D01*
X88259814Y-78099814D01*
X88361271Y-78016552D01*
X88397009Y-77987222D01*
X88553534Y-77903557D01*
X88723373Y-77852037D01*
X88789557Y-77845519D01*
X88855740Y-77839000D01*
X88944260Y-77839000D01*
X89010443Y-77845519D01*
X89010443Y-77845519D01*
G37*
G36*
X126475443Y-77845519D02*
G01*
X126541627Y-77852037D01*
X126711466Y-77903557D01*
X126867991Y-77987222D01*
X126903729Y-78016552D01*
X127005186Y-78099814D01*
X127088448Y-78201271D01*
X127117778Y-78237009D01*
X127201443Y-78393534D01*
X127252963Y-78563373D01*
X127270359Y-78740000D01*
X127252963Y-78916627D01*
X127201443Y-79086466D01*
X127117778Y-79242991D01*
X127088448Y-79278729D01*
X127005186Y-79380186D01*
X126903729Y-79463448D01*
X126867991Y-79492778D01*
X126711466Y-79576443D01*
X126541627Y-79627963D01*
X126475442Y-79634482D01*
X126409260Y-79641000D01*
X126320740Y-79641000D01*
X126254558Y-79634482D01*
X126188373Y-79627963D01*
X126018534Y-79576443D01*
X125862009Y-79492778D01*
X125826271Y-79463448D01*
X125724814Y-79380186D01*
X125641552Y-79278729D01*
X125612222Y-79242991D01*
X125528557Y-79086466D01*
X125477037Y-78916627D01*
X125459641Y-78740000D01*
X125477037Y-78563373D01*
X125528557Y-78393534D01*
X125612222Y-78237009D01*
X125641552Y-78201271D01*
X125724814Y-78099814D01*
X125826271Y-78016552D01*
X125862009Y-77987222D01*
X126018534Y-77903557D01*
X126188373Y-77852037D01*
X126254557Y-77845519D01*
X126320740Y-77839000D01*
X126409260Y-77839000D01*
X126475443Y-77845519D01*
X126475443Y-77845519D01*
G37*
G36*
X91550443Y-77845519D02*
G01*
X91616627Y-77852037D01*
X91786466Y-77903557D01*
X91942991Y-77987222D01*
X91978729Y-78016552D01*
X92080186Y-78099814D01*
X92163448Y-78201271D01*
X92192778Y-78237009D01*
X92276443Y-78393534D01*
X92327963Y-78563373D01*
X92345359Y-78740000D01*
X92327963Y-78916627D01*
X92276443Y-79086466D01*
X92192778Y-79242991D01*
X92163448Y-79278729D01*
X92080186Y-79380186D01*
X91978729Y-79463448D01*
X91942991Y-79492778D01*
X91786466Y-79576443D01*
X91616627Y-79627963D01*
X91550442Y-79634482D01*
X91484260Y-79641000D01*
X91395740Y-79641000D01*
X91329558Y-79634482D01*
X91263373Y-79627963D01*
X91093534Y-79576443D01*
X90937009Y-79492778D01*
X90901271Y-79463448D01*
X90799814Y-79380186D01*
X90716552Y-79278729D01*
X90687222Y-79242991D01*
X90603557Y-79086466D01*
X90552037Y-78916627D01*
X90534641Y-78740000D01*
X90552037Y-78563373D01*
X90603557Y-78393534D01*
X90687222Y-78237009D01*
X90716552Y-78201271D01*
X90799814Y-78099814D01*
X90901271Y-78016552D01*
X90937009Y-77987222D01*
X91093534Y-77903557D01*
X91263373Y-77852037D01*
X91329557Y-77845519D01*
X91395740Y-77839000D01*
X91484260Y-77839000D01*
X91550443Y-77845519D01*
X91550443Y-77845519D01*
G37*
G36*
X123935443Y-77845519D02*
G01*
X124001627Y-77852037D01*
X124171466Y-77903557D01*
X124327991Y-77987222D01*
X124363729Y-78016552D01*
X124465186Y-78099814D01*
X124548448Y-78201271D01*
X124577778Y-78237009D01*
X124661443Y-78393534D01*
X124712963Y-78563373D01*
X124730359Y-78740000D01*
X124712963Y-78916627D01*
X124661443Y-79086466D01*
X124577778Y-79242991D01*
X124548448Y-79278729D01*
X124465186Y-79380186D01*
X124363729Y-79463448D01*
X124327991Y-79492778D01*
X124171466Y-79576443D01*
X124001627Y-79627963D01*
X123935442Y-79634482D01*
X123869260Y-79641000D01*
X123780740Y-79641000D01*
X123714558Y-79634482D01*
X123648373Y-79627963D01*
X123478534Y-79576443D01*
X123322009Y-79492778D01*
X123286271Y-79463448D01*
X123184814Y-79380186D01*
X123101552Y-79278729D01*
X123072222Y-79242991D01*
X122988557Y-79086466D01*
X122937037Y-78916627D01*
X122919641Y-78740000D01*
X122937037Y-78563373D01*
X122988557Y-78393534D01*
X123072222Y-78237009D01*
X123101552Y-78201271D01*
X123184814Y-78099814D01*
X123286271Y-78016552D01*
X123322009Y-77987222D01*
X123478534Y-77903557D01*
X123648373Y-77852037D01*
X123714557Y-77845519D01*
X123780740Y-77839000D01*
X123869260Y-77839000D01*
X123935443Y-77845519D01*
X123935443Y-77845519D01*
G37*
G36*
X94090443Y-77845519D02*
G01*
X94156627Y-77852037D01*
X94326466Y-77903557D01*
X94482991Y-77987222D01*
X94518729Y-78016552D01*
X94620186Y-78099814D01*
X94703448Y-78201271D01*
X94732778Y-78237009D01*
X94816443Y-78393534D01*
X94867963Y-78563373D01*
X94885359Y-78740000D01*
X94867963Y-78916627D01*
X94816443Y-79086466D01*
X94732778Y-79242991D01*
X94703448Y-79278729D01*
X94620186Y-79380186D01*
X94518729Y-79463448D01*
X94482991Y-79492778D01*
X94326466Y-79576443D01*
X94156627Y-79627963D01*
X94090442Y-79634482D01*
X94024260Y-79641000D01*
X93935740Y-79641000D01*
X93869558Y-79634482D01*
X93803373Y-79627963D01*
X93633534Y-79576443D01*
X93477009Y-79492778D01*
X93441271Y-79463448D01*
X93339814Y-79380186D01*
X93256552Y-79278729D01*
X93227222Y-79242991D01*
X93143557Y-79086466D01*
X93092037Y-78916627D01*
X93074641Y-78740000D01*
X93092037Y-78563373D01*
X93143557Y-78393534D01*
X93227222Y-78237009D01*
X93256552Y-78201271D01*
X93339814Y-78099814D01*
X93441271Y-78016552D01*
X93477009Y-77987222D01*
X93633534Y-77903557D01*
X93803373Y-77852037D01*
X93869557Y-77845519D01*
X93935740Y-77839000D01*
X94024260Y-77839000D01*
X94090443Y-77845519D01*
X94090443Y-77845519D01*
G37*
G36*
X121395443Y-77845519D02*
G01*
X121461627Y-77852037D01*
X121631466Y-77903557D01*
X121787991Y-77987222D01*
X121823729Y-78016552D01*
X121925186Y-78099814D01*
X122008448Y-78201271D01*
X122037778Y-78237009D01*
X122121443Y-78393534D01*
X122172963Y-78563373D01*
X122190359Y-78740000D01*
X122172963Y-78916627D01*
X122121443Y-79086466D01*
X122037778Y-79242991D01*
X122008448Y-79278729D01*
X121925186Y-79380186D01*
X121823729Y-79463448D01*
X121787991Y-79492778D01*
X121631466Y-79576443D01*
X121461627Y-79627963D01*
X121395442Y-79634482D01*
X121329260Y-79641000D01*
X121240740Y-79641000D01*
X121174558Y-79634482D01*
X121108373Y-79627963D01*
X120938534Y-79576443D01*
X120782009Y-79492778D01*
X120746271Y-79463448D01*
X120644814Y-79380186D01*
X120561552Y-79278729D01*
X120532222Y-79242991D01*
X120448557Y-79086466D01*
X120397037Y-78916627D01*
X120379641Y-78740000D01*
X120397037Y-78563373D01*
X120448557Y-78393534D01*
X120532222Y-78237009D01*
X120561552Y-78201271D01*
X120644814Y-78099814D01*
X120746271Y-78016552D01*
X120782009Y-77987222D01*
X120938534Y-77903557D01*
X121108373Y-77852037D01*
X121174557Y-77845519D01*
X121240740Y-77839000D01*
X121329260Y-77839000D01*
X121395443Y-77845519D01*
X121395443Y-77845519D01*
G37*
G36*
X96630443Y-77845519D02*
G01*
X96696627Y-77852037D01*
X96866466Y-77903557D01*
X97022991Y-77987222D01*
X97058729Y-78016552D01*
X97160186Y-78099814D01*
X97243448Y-78201271D01*
X97272778Y-78237009D01*
X97356443Y-78393534D01*
X97407963Y-78563373D01*
X97425359Y-78740000D01*
X97407963Y-78916627D01*
X97356443Y-79086466D01*
X97272778Y-79242991D01*
X97243448Y-79278729D01*
X97160186Y-79380186D01*
X97058729Y-79463448D01*
X97022991Y-79492778D01*
X96866466Y-79576443D01*
X96696627Y-79627963D01*
X96630442Y-79634482D01*
X96564260Y-79641000D01*
X96475740Y-79641000D01*
X96409558Y-79634482D01*
X96343373Y-79627963D01*
X96173534Y-79576443D01*
X96017009Y-79492778D01*
X95981271Y-79463448D01*
X95879814Y-79380186D01*
X95796552Y-79278729D01*
X95767222Y-79242991D01*
X95683557Y-79086466D01*
X95632037Y-78916627D01*
X95614641Y-78740000D01*
X95632037Y-78563373D01*
X95683557Y-78393534D01*
X95767222Y-78237009D01*
X95796552Y-78201271D01*
X95879814Y-78099814D01*
X95981271Y-78016552D01*
X96017009Y-77987222D01*
X96173534Y-77903557D01*
X96343373Y-77852037D01*
X96409557Y-77845519D01*
X96475740Y-77839000D01*
X96564260Y-77839000D01*
X96630443Y-77845519D01*
X96630443Y-77845519D01*
G37*
G36*
X118855443Y-77845519D02*
G01*
X118921627Y-77852037D01*
X119091466Y-77903557D01*
X119247991Y-77987222D01*
X119283729Y-78016552D01*
X119385186Y-78099814D01*
X119468448Y-78201271D01*
X119497778Y-78237009D01*
X119581443Y-78393534D01*
X119632963Y-78563373D01*
X119650359Y-78740000D01*
X119632963Y-78916627D01*
X119581443Y-79086466D01*
X119497778Y-79242991D01*
X119468448Y-79278729D01*
X119385186Y-79380186D01*
X119283729Y-79463448D01*
X119247991Y-79492778D01*
X119091466Y-79576443D01*
X118921627Y-79627963D01*
X118855442Y-79634482D01*
X118789260Y-79641000D01*
X118700740Y-79641000D01*
X118634558Y-79634482D01*
X118568373Y-79627963D01*
X118398534Y-79576443D01*
X118242009Y-79492778D01*
X118206271Y-79463448D01*
X118104814Y-79380186D01*
X118021552Y-79278729D01*
X117992222Y-79242991D01*
X117908557Y-79086466D01*
X117857037Y-78916627D01*
X117839641Y-78740000D01*
X117857037Y-78563373D01*
X117908557Y-78393534D01*
X117992222Y-78237009D01*
X118021552Y-78201271D01*
X118104814Y-78099814D01*
X118206271Y-78016552D01*
X118242009Y-77987222D01*
X118398534Y-77903557D01*
X118568373Y-77852037D01*
X118634557Y-77845519D01*
X118700740Y-77839000D01*
X118789260Y-77839000D01*
X118855443Y-77845519D01*
X118855443Y-77845519D01*
G37*
G36*
X99170443Y-77845519D02*
G01*
X99236627Y-77852037D01*
X99406466Y-77903557D01*
X99562991Y-77987222D01*
X99598729Y-78016552D01*
X99700186Y-78099814D01*
X99783448Y-78201271D01*
X99812778Y-78237009D01*
X99896443Y-78393534D01*
X99947963Y-78563373D01*
X99965359Y-78740000D01*
X99947963Y-78916627D01*
X99896443Y-79086466D01*
X99812778Y-79242991D01*
X99783448Y-79278729D01*
X99700186Y-79380186D01*
X99598729Y-79463448D01*
X99562991Y-79492778D01*
X99406466Y-79576443D01*
X99236627Y-79627963D01*
X99170442Y-79634482D01*
X99104260Y-79641000D01*
X99015740Y-79641000D01*
X98949558Y-79634482D01*
X98883373Y-79627963D01*
X98713534Y-79576443D01*
X98557009Y-79492778D01*
X98521271Y-79463448D01*
X98419814Y-79380186D01*
X98336552Y-79278729D01*
X98307222Y-79242991D01*
X98223557Y-79086466D01*
X98172037Y-78916627D01*
X98154641Y-78740000D01*
X98172037Y-78563373D01*
X98223557Y-78393534D01*
X98307222Y-78237009D01*
X98336552Y-78201271D01*
X98419814Y-78099814D01*
X98521271Y-78016552D01*
X98557009Y-77987222D01*
X98713534Y-77903557D01*
X98883373Y-77852037D01*
X98949557Y-77845519D01*
X99015740Y-77839000D01*
X99104260Y-77839000D01*
X99170443Y-77845519D01*
X99170443Y-77845519D01*
G37*
G36*
X116315443Y-77845519D02*
G01*
X116381627Y-77852037D01*
X116551466Y-77903557D01*
X116707991Y-77987222D01*
X116743729Y-78016552D01*
X116845186Y-78099814D01*
X116928448Y-78201271D01*
X116957778Y-78237009D01*
X117041443Y-78393534D01*
X117092963Y-78563373D01*
X117110359Y-78740000D01*
X117092963Y-78916627D01*
X117041443Y-79086466D01*
X116957778Y-79242991D01*
X116928448Y-79278729D01*
X116845186Y-79380186D01*
X116743729Y-79463448D01*
X116707991Y-79492778D01*
X116551466Y-79576443D01*
X116381627Y-79627963D01*
X116315442Y-79634482D01*
X116249260Y-79641000D01*
X116160740Y-79641000D01*
X116094558Y-79634482D01*
X116028373Y-79627963D01*
X115858534Y-79576443D01*
X115702009Y-79492778D01*
X115666271Y-79463448D01*
X115564814Y-79380186D01*
X115481552Y-79278729D01*
X115452222Y-79242991D01*
X115368557Y-79086466D01*
X115317037Y-78916627D01*
X115299641Y-78740000D01*
X115317037Y-78563373D01*
X115368557Y-78393534D01*
X115452222Y-78237009D01*
X115481552Y-78201271D01*
X115564814Y-78099814D01*
X115666271Y-78016552D01*
X115702009Y-77987222D01*
X115858534Y-77903557D01*
X116028373Y-77852037D01*
X116094557Y-77845519D01*
X116160740Y-77839000D01*
X116249260Y-77839000D01*
X116315443Y-77845519D01*
X116315443Y-77845519D01*
G37*
G36*
X101710443Y-77845519D02*
G01*
X101776627Y-77852037D01*
X101946466Y-77903557D01*
X102102991Y-77987222D01*
X102138729Y-78016552D01*
X102240186Y-78099814D01*
X102323448Y-78201271D01*
X102352778Y-78237009D01*
X102436443Y-78393534D01*
X102487963Y-78563373D01*
X102505359Y-78740000D01*
X102487963Y-78916627D01*
X102436443Y-79086466D01*
X102352778Y-79242991D01*
X102323448Y-79278729D01*
X102240186Y-79380186D01*
X102138729Y-79463448D01*
X102102991Y-79492778D01*
X101946466Y-79576443D01*
X101776627Y-79627963D01*
X101710442Y-79634482D01*
X101644260Y-79641000D01*
X101555740Y-79641000D01*
X101489558Y-79634482D01*
X101423373Y-79627963D01*
X101253534Y-79576443D01*
X101097009Y-79492778D01*
X101061271Y-79463448D01*
X100959814Y-79380186D01*
X100876552Y-79278729D01*
X100847222Y-79242991D01*
X100763557Y-79086466D01*
X100712037Y-78916627D01*
X100694641Y-78740000D01*
X100712037Y-78563373D01*
X100763557Y-78393534D01*
X100847222Y-78237009D01*
X100876552Y-78201271D01*
X100959814Y-78099814D01*
X101061271Y-78016552D01*
X101097009Y-77987222D01*
X101253534Y-77903557D01*
X101423373Y-77852037D01*
X101489557Y-77845519D01*
X101555740Y-77839000D01*
X101644260Y-77839000D01*
X101710443Y-77845519D01*
X101710443Y-77845519D01*
G37*
G36*
X114566000Y-79641000D02*
G01*
X112764000Y-79641000D01*
X112764000Y-77839000D01*
X114566000Y-77839000D01*
X114566000Y-79641000D01*
X114566000Y-79641000D01*
G37*
G36*
X83930443Y-77845519D02*
G01*
X83996627Y-77852037D01*
X84166466Y-77903557D01*
X84322991Y-77987222D01*
X84358729Y-78016552D01*
X84460186Y-78099814D01*
X84543448Y-78201271D01*
X84572778Y-78237009D01*
X84656443Y-78393534D01*
X84707963Y-78563373D01*
X84725359Y-78740000D01*
X84707963Y-78916627D01*
X84656443Y-79086466D01*
X84572778Y-79242991D01*
X84543448Y-79278729D01*
X84460186Y-79380186D01*
X84358729Y-79463448D01*
X84322991Y-79492778D01*
X84166466Y-79576443D01*
X83996627Y-79627963D01*
X83930442Y-79634482D01*
X83864260Y-79641000D01*
X83775740Y-79641000D01*
X83709558Y-79634482D01*
X83643373Y-79627963D01*
X83473534Y-79576443D01*
X83317009Y-79492778D01*
X83281271Y-79463448D01*
X83179814Y-79380186D01*
X83096552Y-79278729D01*
X83067222Y-79242991D01*
X82983557Y-79086466D01*
X82932037Y-78916627D01*
X82914641Y-78740000D01*
X82932037Y-78563373D01*
X82983557Y-78393534D01*
X83067222Y-78237009D01*
X83096552Y-78201271D01*
X83179814Y-78099814D01*
X83281271Y-78016552D01*
X83317009Y-77987222D01*
X83473534Y-77903557D01*
X83643373Y-77852037D01*
X83709557Y-77845519D01*
X83775740Y-77839000D01*
X83864260Y-77839000D01*
X83930443Y-77845519D01*
X83930443Y-77845519D01*
G37*
M02*
