G04 #@! TF.GenerationSoftware,KiCad,Pcbnew,(5.1.0-0)*
G04 #@! TF.CreationDate,2019-05-22T21:16:58-07:00*
G04 #@! TF.ProjectId,eurorack-bus,6575726f-7261-4636-9b2d-6275732e6b69,rev?*
G04 #@! TF.SameCoordinates,Original*
G04 #@! TF.FileFunction,Legend,Top*
G04 #@! TF.FilePolarity,Positive*
%FSLAX46Y46*%
G04 Gerber Fmt 4.6, Leading zero omitted, Abs format (unit mm)*
G04 Created by KiCad (PCBNEW (5.1.0-0)) date 2019-05-22 21:16:58*
%MOMM*%
%LPD*%
G04 APERTURE LIST*
%ADD10C,0.120000*%
%ADD11C,0.150000*%
G04 APERTURE END LIST*
D10*
X102930000Y-77410000D02*
X102930000Y-80010000D01*
X102930000Y-77410000D02*
X82490000Y-77410000D01*
X82490000Y-77410000D02*
X82490000Y-82610000D01*
X100330000Y-82610000D02*
X82490000Y-82610000D01*
X100330000Y-80010000D02*
X100330000Y-82610000D01*
X102930000Y-80010000D02*
X100330000Y-80010000D01*
X102930000Y-82610000D02*
X101600000Y-82610000D01*
X102930000Y-81280000D02*
X102930000Y-82610000D01*
X102930000Y-100330000D02*
X102930000Y-101660000D01*
X102930000Y-101660000D02*
X101600000Y-101660000D01*
X102930000Y-99060000D02*
X100330000Y-99060000D01*
X100330000Y-99060000D02*
X100330000Y-101660000D01*
X100330000Y-101660000D02*
X82490000Y-101660000D01*
X82490000Y-96460000D02*
X82490000Y-101660000D01*
X102930000Y-96460000D02*
X82490000Y-96460000D01*
X102930000Y-96460000D02*
X102930000Y-99060000D01*
X163770000Y-79315000D02*
X166370000Y-79315000D01*
X163770000Y-79315000D02*
X163770000Y-99755000D01*
X163770000Y-99755000D02*
X168970000Y-99755000D01*
X168970000Y-81915000D02*
X168970000Y-99755000D01*
X166370000Y-81915000D02*
X168970000Y-81915000D01*
X166370000Y-79315000D02*
X166370000Y-81915000D01*
X168970000Y-79315000D02*
X168970000Y-80645000D01*
X167640000Y-79315000D02*
X168970000Y-79315000D01*
X112335000Y-82610000D02*
X112335000Y-80010000D01*
X112335000Y-82610000D02*
X132775000Y-82610000D01*
X132775000Y-82610000D02*
X132775000Y-77410000D01*
X114935000Y-77410000D02*
X132775000Y-77410000D01*
X114935000Y-80010000D02*
X114935000Y-77410000D01*
X112335000Y-80010000D02*
X114935000Y-80010000D01*
X112335000Y-77410000D02*
X113665000Y-77410000D01*
X112335000Y-78740000D02*
X112335000Y-77410000D01*
X112335000Y-97790000D02*
X112335000Y-96460000D01*
X112335000Y-96460000D02*
X113665000Y-96460000D01*
X112335000Y-99060000D02*
X114935000Y-99060000D01*
X114935000Y-99060000D02*
X114935000Y-96460000D01*
X114935000Y-96460000D02*
X132775000Y-96460000D01*
X132775000Y-101660000D02*
X132775000Y-96460000D01*
X112335000Y-101660000D02*
X132775000Y-101660000D01*
X112335000Y-101660000D02*
X112335000Y-99060000D01*
X147260000Y-79315000D02*
X149860000Y-79315000D01*
X147260000Y-79315000D02*
X147260000Y-99755000D01*
X147260000Y-99755000D02*
X152460000Y-99755000D01*
X152460000Y-81915000D02*
X152460000Y-99755000D01*
X149860000Y-81915000D02*
X152460000Y-81915000D01*
X149860000Y-79315000D02*
X149860000Y-81915000D01*
X152460000Y-79315000D02*
X152460000Y-80645000D01*
X151130000Y-79315000D02*
X152460000Y-79315000D01*
D11*
X103822380Y-80343333D02*
X104536666Y-80343333D01*
X104679523Y-80390952D01*
X104774761Y-80486190D01*
X104822380Y-80629047D01*
X104822380Y-80724285D01*
X103822380Y-79962380D02*
X103822380Y-79343333D01*
X104203333Y-79676666D01*
X104203333Y-79533809D01*
X104250952Y-79438571D01*
X104298571Y-79390952D01*
X104393809Y-79343333D01*
X104631904Y-79343333D01*
X104727142Y-79390952D01*
X104774761Y-79438571D01*
X104822380Y-79533809D01*
X104822380Y-79819523D01*
X104774761Y-79914761D01*
X104727142Y-79962380D01*
X103822380Y-99393333D02*
X104536666Y-99393333D01*
X104679523Y-99440952D01*
X104774761Y-99536190D01*
X104822380Y-99679047D01*
X104822380Y-99774285D01*
X104155714Y-98488571D02*
X104822380Y-98488571D01*
X103774761Y-98726666D02*
X104489047Y-98964761D01*
X104489047Y-98345714D01*
X166036666Y-77327380D02*
X166036666Y-78041666D01*
X165989047Y-78184523D01*
X165893809Y-78279761D01*
X165750952Y-78327380D01*
X165655714Y-78327380D01*
X167036666Y-78327380D02*
X166465238Y-78327380D01*
X166750952Y-78327380D02*
X166750952Y-77327380D01*
X166655714Y-77470238D01*
X166560476Y-77565476D01*
X166465238Y-77613095D01*
X110347380Y-80343333D02*
X111061666Y-80343333D01*
X111204523Y-80390952D01*
X111299761Y-80486190D01*
X111347380Y-80629047D01*
X111347380Y-80724285D01*
X110347380Y-79390952D02*
X110347380Y-79867142D01*
X110823571Y-79914761D01*
X110775952Y-79867142D01*
X110728333Y-79771904D01*
X110728333Y-79533809D01*
X110775952Y-79438571D01*
X110823571Y-79390952D01*
X110918809Y-79343333D01*
X111156904Y-79343333D01*
X111252142Y-79390952D01*
X111299761Y-79438571D01*
X111347380Y-79533809D01*
X111347380Y-79771904D01*
X111299761Y-79867142D01*
X111252142Y-79914761D01*
X110347380Y-99393333D02*
X111061666Y-99393333D01*
X111204523Y-99440952D01*
X111299761Y-99536190D01*
X111347380Y-99679047D01*
X111347380Y-99774285D01*
X110347380Y-98488571D02*
X110347380Y-98679047D01*
X110395000Y-98774285D01*
X110442619Y-98821904D01*
X110585476Y-98917142D01*
X110775952Y-98964761D01*
X111156904Y-98964761D01*
X111252142Y-98917142D01*
X111299761Y-98869523D01*
X111347380Y-98774285D01*
X111347380Y-98583809D01*
X111299761Y-98488571D01*
X111252142Y-98440952D01*
X111156904Y-98393333D01*
X110918809Y-98393333D01*
X110823571Y-98440952D01*
X110775952Y-98488571D01*
X110728333Y-98583809D01*
X110728333Y-98774285D01*
X110775952Y-98869523D01*
X110823571Y-98917142D01*
X110918809Y-98964761D01*
X149526666Y-77327380D02*
X149526666Y-78041666D01*
X149479047Y-78184523D01*
X149383809Y-78279761D01*
X149240952Y-78327380D01*
X149145714Y-78327380D01*
X149955238Y-77422619D02*
X150002857Y-77375000D01*
X150098095Y-77327380D01*
X150336190Y-77327380D01*
X150431428Y-77375000D01*
X150479047Y-77422619D01*
X150526666Y-77517857D01*
X150526666Y-77613095D01*
X150479047Y-77755952D01*
X149907619Y-78327380D01*
X150526666Y-78327380D01*
M02*
